<?xml version="1.0" encoding="utf-8"?>
<!-- Generator: Adobe Illustrator 19.0.0, SVG Export Plug-In . SVG Version: 6.00 Build 0)  -->
<svg version="1.1" id="Capa_1" xmlns="http://www.w3.org/2000/svg" xmlns:xlink="http://www.w3.org/1999/xlink" x="0px" y="0px"
	 viewBox="-31 32.2 436.8 436.8" style="enable-background:new -31 32.2 436.8 436.8;" xml:space="preserve">
<style type="text/css">
	.st0{fill:#AF3023;}
</style>
<path class="st0" d="M250.1,218.8c-6.3,0-12.4,1.3-17.9,3.6L219,196.8h18.4c2,0,3.6,1.6,3.6,3.6s-1.6,3.6-3.6,3.6h-3.9
	c-2.1,0-3.8,1.7-3.8,3.8s1.7,3.8,3.8,3.8h3.9c6.1,0,11.1-5,11.1-11.1c0-6.1-5-11.1-11.1-11.1h-24.6c-1.3,0-2.5,0.7-3.2,1.8
	c-0.7,1.1-0.7,2.5-0.1,3.7l6.6,12.7h-54.1l-5.5-10.7h8.6c2.1,0,3.8-1.7,3.8-3.8s-1.7-3.8-3.8-3.8h-24.6c-2.1,0-3.8,1.7-3.8,3.8
	s1.7,3.8,3.8,3.8h7.5l7.3,14.3l-8.6,13.3c-6.6-3.5-14.1-5.5-22-5.5c-25.7,0-46.5,20.9-46.5,46.5s20.9,46.5,46.5,46.5
	c24.4,0,44.5-18.9,46.4-42.8h11l-4.3,13.9h-2.5c-2.1,0-3.8,1.7-3.8,3.8c0,2.1,1.7,3.8,3.8,3.8h13.5c2.1,0,3.8-1.7,3.8-3.8
	c0-2.1-1.7-3.8-3.8-3.8h-3.2l4.9-16.1l31.2-48.2l3.6,7.1c-13.2,8.2-22,22.9-22,39.5c0,25.7,20.9,46.5,46.5,46.5
	c25.7,0,46.5-20.9,46.5-46.5C296.6,239.7,275.8,218.8,250.1,218.8z M159.3,218.8l21.8,42.8h-10c-1.1-13.5-7.9-25.4-18.1-33.2
	L159.3,218.8z M163.6,261.6h-32l17.3-26.8C157.1,241.2,162.6,250.7,163.6,261.6z M124.8,304.4c-21.5,0-39-17.5-39-39
	c0-21.5,17.5-39,39-39c6.5,0,12.5,1.6,17.9,4.4l-21.1,32.6c-0.7,1.2-0.8,2.6-0.1,3.8c0.7,1.2,1.9,2,3.3,2h38.9
	C161.7,288.9,145,304.4,124.8,304.4z M187.6,257.8L165.7,215h49.6L187.6,257.8z M250.1,304.4c-21.5,0-39-17.5-39-39
	c0-13.7,7.1-25.9,17.9-32.8l17.8,34.5c0.7,1.3,2,2,3.3,2c0.6,0,1.2-0.1,1.7-0.4c1.8-0.9,2.6-3.2,1.6-5.1l-17.8-34.5
	c4.5-1.8,9.4-2.8,14.5-2.8c21.5,0,39,17.5,39,39C289.1,286.9,271.6,304.4,250.1,304.4z"/>
</svg>
