<?xml version="1.0" encoding="utf-8"?>
<!-- Generator: Adobe Illustrator 19.0.0, SVG Export Plug-In . SVG Version: 6.00 Build 0)  -->
<svg version="1.1" id="Layer_1" xmlns="http://www.w3.org/2000/svg" xmlns:xlink="http://www.w3.org/1999/xlink" x="0px" y="0px"
	 viewBox="-237 239 24 24" style="enable-background:new -237 239 24 24;" xml:space="preserve">
<style type="text/css">
	.st0{fill:none;}
	.st1{fill:#198CFC;}
</style>
<path class="st0" d="M-237,239h24v24h-24V239z"/>
<path class="st1" d="M-227.3,244.4c0.3,0,0.6-0.3,0.6-0.6s-0.3-0.6-0.6-0.6c-0.3,0-0.6,0.3-0.6,0.6S-227.6,244.4-227.3,244.4z
	 M-230.4,246.3c-0.8,0-1.5,0.6-1.5,1.5s0.6,1.5,1.5,1.5s1.5-0.6,1.5-1.5S-229.6,246.3-230.4,246.3z M-230.4,248.8c-0.6,0-1-0.5-1-1
	s0.5-1,1-1s1,0.5,1,1S-229.8,248.8-230.4,248.8z M-228.7,245.8l0.7-0.7l0.2,0.2c0.4,0.4,0.9,0.6,1.5,0.6v-0.6
	c-0.4,0-0.8-0.2-1.1-0.4l-0.6-0.6c-0.1-0.1-0.3-0.2-0.5-0.2c-0.2,0-0.3,0.1-0.4,0.2l-0.8,0.8c-0.1,0.1-0.2,0.3-0.2,0.4
	c0,0.2,0.1,0.3,0.2,0.4l0.9,0.8v1.5h0.6v-1.8L-228.7,245.8z M-226.3,246.3c-0.8,0-1.5,0.6-1.5,1.5s0.6,1.5,1.5,1.5
	c0.8,0,1.5-0.6,1.5-1.5S-225.5,246.3-226.3,246.3z M-226.3,248.8c-0.6,0-1-0.5-1-1s0.5-1,1-1s1,0.5,1,1S-225.7,248.8-226.3,248.8z"
	/>
</svg>
