<?xml version="1.0" encoding="utf-8"?>
<!-- Generator: Adobe Illustrator 19.0.0, SVG Export Plug-In . SVG Version: 6.00 Build 0)  -->
<svg version="1.1" id="Layer_1" xmlns="http://www.w3.org/2000/svg" xmlns:xlink="http://www.w3.org/1999/xlink" x="0px" y="0px"
	 viewBox="0 0 196.8 93.9" style="enable-background:new 0 0 196.8 93.9;" xml:space="preserve">
<style type="text/css">
	.st0{fill:#FFF3E1;}
	.st1{fill:#DD2227;}
	.st2{fill:#162A17;}
	.st3{fill:#B9BABD;}
	.st4{fill:#3DB54A;}
	.st5{fill:#079247;}
	.st6{fill:#8DC641;}
	.st7{fill:#333333;}
	.st8{fill:#C2C2C6;}
	.st9{fill:#4E4E4E;}
	.st10{fill:#76777B;}
	.st11{fill:#1A1A1A;}
	.st12{fill:#154621;}
	.st13{fill:#FFFFFF;}
	.st14{fill:#046937;}
	.st15{fill:#214D25;}
	.st16{fill:#CDCCCC;}
	.st17{fill:#676767;}
	.st18{fill:#5C5C5C;}
	.st19{fill:#8BB1BB;}
	.st20{fill:#48585A;}
	.st21{fill:#505050;}
	.st22{fill:#2E3239;}
	.st23{fill:#808080;}
	.st24{fill:#EDEDED;}
	.st25{fill:#F3F3F3;}
	.st26{fill:none;}
	.st27{fill:#E9845D;}
	.st28{font-family:'Montserrat-Bold';}
	.st29{font-size:12px;}
</style>
<rect id="XMLID_556_" class="st0" width="196.8" height="93.9"/>
<g id="XMLID_2_">
	<g id="XMLID_109_">
		<path id="XMLID_524_" class="st1" d="M26.7,30.9c0,0.2-0.1,0.4-0.3,0.4h-1.3c-0.2,0-0.4-0.2-0.4-0.4v-0.5c0-0.2,0.2-0.4,0.4-0.4
			l1.3-0.1c0.2,0,0.4,0.2,0.4,0.4V30.9z"/>
		<path id="XMLID_523_" class="st2" d="M27.5,30.9c0,0.2-0.2,0.4-0.4,0.4l-1.7,0.1c-0.2,0-0.4-0.2-0.4-0.4v-0.8
			c0-0.2,0.2-0.4,0.4-0.4h1.3c0.2,0,0.4,0.2,0.4,0.4L27.5,30.9z"/>
		<path id="XMLID_520_" class="st3" d="M57.4,43.7L57.4,43.7L57.4,43.7 M57.4,43.7L57.4,43.7L57.4,43.7"/>
		
			<rect id="XMLID_519_" x="71.7" y="48.1" transform="matrix(0.1951 0.9808 -0.9808 0.1951 116.6173 -45.7112)" class="st4" width="28.9" height="0.1"/>
		
			<rect id="XMLID_518_" x="86.1" y="33.7" transform="matrix(0.9808 0.1951 -0.1951 0.9808 11.0595 -15.8848)" class="st4" width="0.1" height="28.9"/>
		
			<rect id="XMLID_517_" x="86.1" y="33.7" transform="matrix(0.1951 0.9808 -0.9808 0.1951 116.6128 -45.7126)" class="st4" width="0.1" height="28.9"/>
		
			<rect id="XMLID_516_" x="71.7" y="48.1" transform="matrix(0.9808 0.1951 -0.1951 0.9808 11.0576 -15.8826)" class="st4" width="28.9" height="0.1"/>
		
			<rect id="XMLID_515_" x="86.1" y="33.7" transform="matrix(0.8319 0.5549 -0.5549 0.8319 41.2275 -39.7102)" class="st4" width="0.1" height="28.9"/>
		
			<rect id="XMLID_514_" x="86.1" y="33.7" transform="matrix(0.5542 0.8324 -0.8324 0.5542 78.5275 -50.2322)" class="st4" width="0.1" height="28.9"/>
		
			<rect id="XMLID_513_" x="71.7" y="48.1" transform="matrix(0.5556 0.8315 -0.8315 0.5556 78.3625 -50.2192)" class="st4" width="28.9" height="0.1"/>
		
			<rect id="XMLID_512_" x="71.7" y="48.1" transform="matrix(0.8315 0.5556 -0.5556 0.8315 41.2957 -39.745)" class="st4" width="28.9" height="0.1"/>
		<circle id="XMLID_511_" class="st4" cx="86.2" cy="48.2" r="1.1"/>
		<path id="XMLID_510_" class="st5" d="M86.2,49.3c-0.6,0-1.1-0.5-1.1-1c0,0,0,0,0,0.1c0,0.6,0.5,1.1,1.1,1.1c0.6,0,1.1-0.5,1.1-1.1
			c0,0,0,0,0-0.1C87.2,48.8,86.7,49.3,86.2,49.3z"/>
		<path id="XMLID_509_" class="st6" d="M86.2,47.2c-0.6,0-1.1,0.5-1.1,1c0,0,0,0,0-0.1c0-0.6,0.5-1.1,1.1-1.1c0.6,0,1.1,0.5,1.1,1.1
			c0,0,0,0,0,0.1C87.2,47.7,86.7,47.2,86.2,47.2z"/>
		<circle id="XMLID_508_" class="st5" cx="87.1" cy="48" r="0.1"/>
		<circle id="XMLID_507_" class="st5" cx="85.2" cy="48.4" r="0.1"/>
		<circle id="XMLID_506_" class="st5" cx="87" cy="47.6" r="0.1"/>
		<circle id="XMLID_505_" class="st5" cx="85.3" cy="48.7" r="0.1"/>
		<circle id="XMLID_504_" class="st5" cx="86.7" cy="47.4" r="0.1"/>
		<circle id="XMLID_503_" class="st5" cx="85.6" cy="49" r="0.1"/>
		<circle id="XMLID_502_" class="st5" cx="86.3" cy="47.2" r="0.1"/>
		<circle id="XMLID_501_" class="st5" cx="86" cy="49.1" r="0.1"/>
		<circle id="XMLID_500_" class="st5" cx="86" cy="47.2" r="0.1"/>
		<circle id="XMLID_499_" class="st5" cx="86.3" cy="49.1" r="0.1"/>
		<circle id="XMLID_498_" class="st5" cx="85.6" cy="47.4" r="0.1"/>
		<circle id="XMLID_497_" class="st5" cx="86.7" cy="49" r="0.1"/>
		<circle id="XMLID_496_" class="st5" cx="85.3" cy="47.6" r="0.1"/>
		<circle id="XMLID_495_" class="st5" cx="87" cy="48.7" r="0.1"/>
		<circle id="XMLID_494_" class="st5" cx="85.2" cy="48" r="0.1"/>
		<circle id="XMLID_493_" class="st5" cx="87.1" cy="48.4" r="0.1"/>
		
			<rect id="XMLID_492_" x="21.9" y="48.1" transform="matrix(0.1951 0.9808 -0.9808 0.1951 76.5547 3.1055)" class="st4" width="28.9" height="0.1"/>
		
			<rect id="XMLID_491_" x="36.3" y="33.7" transform="matrix(0.9808 0.1951 -0.1951 0.9808 10.103 -6.1732)" class="st4" width="0.1" height="28.9"/>
		
			<rect id="XMLID_490_" x="36.3" y="33.7" transform="matrix(0.1951 0.9808 -0.9808 0.1951 76.5533 3.1043)" class="st4" width="0.1" height="28.9"/>
		
			<rect id="XMLID_489_" x="21.9" y="48.1" transform="matrix(0.9808 0.1951 -0.1951 0.9808 10.1013 -6.1724)" class="st4" width="28.9" height="0.1"/>
		<polyline id="XMLID_488_" class="st4" points="28.4,60.3 28.3,60.2 44.4,36.1 44.5,36.2 28.4,60.3 		"/>
		
			<rect id="XMLID_487_" x="36.3" y="33.7" transform="matrix(0.5561 0.8311 -0.8311 0.5561 56.2078 -8.8467)" class="st4" width="0.1" height="28.9"/>
		
			<rect id="XMLID_486_" x="21.9" y="48.1" transform="matrix(0.5556 0.8315 -0.8315 0.5556 56.2423 -8.8345)" class="st4" width="28.9" height="0.1"/>
		
			<rect id="XMLID_485_" x="21.9" y="48.1" transform="matrix(0.8315 0.5556 -0.5556 0.8315 32.9071 -12.0925)" class="st4" width="28.9" height="0.1"/>
		<circle id="XMLID_484_" class="st4" cx="36.4" cy="48.1" r="1.1"/>
		<path id="XMLID_483_" class="st5" d="M36.4,49.3c-0.6,0-1.1-0.5-1.1-1c0,0,0,0,0,0.1c0,0.6,0.5,1.1,1.1,1.1c0.6,0,1.1-0.5,1.1-1.1
			c0,0,0,0,0-0.1C37.4,48.8,37,49.3,36.4,49.3z"/>
		<path id="XMLID_482_" class="st6" d="M36.4,47.2c-0.6,0-1.1,0.5-1.1,1c0,0,0,0,0-0.1c0-0.6,0.5-1.1,1.1-1.1c0.6,0,1.1,0.5,1.1,1.1
			c0,0,0,0,0,0.1C37.4,47.7,37,47.2,36.4,47.2z"/>
		<circle id="XMLID_481_" class="st5" cx="37.3" cy="48" r="0.1"/>
		<circle id="XMLID_480_" class="st5" cx="35.4" cy="48.3" r="0.1"/>
		<circle id="XMLID_479_" class="st5" cx="37.2" cy="47.6" r="0.1"/>
		<circle id="XMLID_478_" class="st5" cx="35.6" cy="48.7" r="0.1"/>
		<circle id="XMLID_477_" class="st5" cx="36.9" cy="47.3" r="0.1"/>
		<circle id="XMLID_476_" class="st5" cx="35.8" cy="49" r="0.1"/>
		<circle id="XMLID_475_" class="st5" cx="36.6" cy="47.2" r="0.1"/>
		<circle id="XMLID_474_" class="st5" cx="36.2" cy="49.1" r="0.1"/>
		<circle id="XMLID_473_" class="st5" cx="36.2" cy="47.2" r="0.1"/>
		<circle id="XMLID_472_" class="st5" cx="36.6" cy="49.1" r="0.1"/>
		<circle id="XMLID_471_" class="st5" cx="35.8" cy="47.3" r="0.1"/>
		<circle id="XMLID_470_" class="st5" cx="36.9" cy="49" r="0.1"/>
		<circle id="XMLID_469_" class="st5" cx="35.6" cy="47.6" r="0.1"/>
		<circle id="XMLID_468_" class="st5" cx="37.2" cy="48.7" r="0.1"/>
		<circle id="XMLID_467_" class="st5" cx="35.4" cy="48" r="0.1"/>
		<circle id="XMLID_466_" class="st5" cx="37.3" cy="48.3" r="0.1"/>
		<path id="XMLID_463_" class="st7" d="M36.6,47.1C36,47,35.5,47.4,35.4,48c-0.1,0.6,0.2,1.1,0.8,1.2c0.6,0.1,1.1-0.2,1.2-0.8
			C37.5,47.8,37.2,47.3,36.6,47.1z M36.2,48.8c-0.4-0.1-0.6-0.4-0.5-0.8c0.1-0.4,0.4-0.6,0.8-0.5c0.4,0.1,0.6,0.4,0.5,0.8
			C37,48.7,36.6,48.9,36.2,48.8z"/>
		<path id="XMLID_460_" class="st8" d="M36.4,48.8c0,0-0.1,0-0.1,0c-0.4-0.1-0.6-0.4-0.5-0.8c0.1-0.3,0.3-0.5,0.6-0.5
			c0,0,0.1,0,0.1,0c0.4,0.1,0.6,0.4,0.5,0.8C37,48.6,36.7,48.8,36.4,48.8z M36.4,47.6c-0.3,0-0.5,0.2-0.6,0.5c0,0.2,0,0.3,0.1,0.4
			c0.1,0.1,0.2,0.2,0.4,0.3c0,0,0.1,0,0.1,0c0.3,0,0.5-0.2,0.6-0.5c0-0.2,0-0.3-0.1-0.4c-0.1-0.1-0.2-0.2-0.4-0.3
			C36.5,47.6,36.4,47.6,36.4,47.6z"/>
		<path id="XMLID_455_" class="st9" d="M36.4,47.5L36.4,47.5c0,0,0.1,0,0.1,0c0.4,0.1,0.6,0.4,0.5,0.8c-0.1,0.3-0.3,0.5-0.6,0.5
			c0,0-0.1,0-0.1,0c-0.4-0.1-0.6-0.4-0.5-0.8C35.8,47.7,36.1,47.5,36.4,47.5L36.4,47.5 M36.4,48.8c0.3,0,0.5-0.2,0.6-0.5
			c0-0.2,0-0.3-0.1-0.4c-0.1-0.1-0.2-0.2-0.4-0.3c0,0-0.1,0-0.1,0c-0.3,0-0.5,0.2-0.6,0.5c0,0.2,0,0.3,0.1,0.4
			c0.1,0.1,0.2,0.2,0.4,0.3C36.3,48.8,36.3,48.8,36.4,48.8 M36.4,47.5c-0.3,0-0.6,0.2-0.6,0.5c-0.1,0.4,0.2,0.7,0.5,0.8
			c0,0,0.1,0,0.1,0c0.3,0,0.6-0.2,0.7-0.5c0.1-0.4-0.2-0.7-0.5-0.8C36.5,47.5,36.4,47.5,36.4,47.5z M36.4,48.7c0,0-0.1,0-0.1,0
			c-0.3-0.1-0.5-0.4-0.5-0.7c0.1-0.3,0.3-0.5,0.6-0.5c0,0,0.1,0,0.1,0c0.3,0.1,0.5,0.4,0.5,0.7C36.9,48.6,36.7,48.7,36.4,48.7z"/>
		<path id="XMLID_452_" class="st10" d="M36.4,49.5c0,0-0.1,0-0.1,0c-0.4,0-0.7-0.2-0.9-0.5c-0.2-0.3-0.3-0.6-0.3-1
			c0.1-0.7,0.6-1.2,1.3-1.2c0,0,0.1,0,0.1,0c0.4,0,0.7,0.2,0.9,0.5c0.2,0.3,0.3,0.6,0.3,1C37.6,49,37.1,49.5,36.4,49.5z M36.4,47
			c-0.6,0-1.1,0.5-1.2,1.1c0,0.3,0.1,0.6,0.3,0.9c0.2,0.2,0.5,0.4,0.8,0.4c0,0,0.1,0,0.1,0c0.6,0,1.1-0.5,1.2-1.1
			c0-0.3-0.1-0.6-0.3-0.9c-0.2-0.2-0.5-0.4-0.8-0.4C36.5,47,36.4,47,36.4,47z"/>
		<path id="XMLID_447_" class="st9" d="M36.4,46.8L36.4,46.8c0,0,0.1,0,0.1,0c0.4,0,0.7,0.2,0.9,0.5c0.2,0.3,0.3,0.6,0.3,1
			c-0.1,0.7-0.6,1.2-1.3,1.2c0,0-0.1,0-0.1,0c-0.4,0-0.7-0.2-0.9-0.5c-0.2-0.3-0.3-0.6-0.3-1C35.1,47.4,35.7,46.8,36.4,46.8
			 M36.4,49.4c0.6,0,1.1-0.5,1.2-1.1c0-0.3-0.1-0.6-0.3-0.9c-0.2-0.2-0.5-0.4-0.8-0.4c0,0-0.1,0-0.1,0c-0.6,0-1.1,0.5-1.2,1.1
			c0,0.3,0.1,0.6,0.3,0.9c0.2,0.2,0.5,0.4,0.8,0.4C36.3,49.4,36.3,49.4,36.4,49.4 M36.4,46.8c-0.7,0-1.3,0.5-1.3,1.2
			c-0.1,0.7,0.5,1.4,1.2,1.5c0,0,0.1,0,0.1,0c0.7,0,1.3-0.5,1.3-1.2c0.1-0.7-0.5-1.4-1.2-1.5C36.5,46.8,36.4,46.8,36.4,46.8z
			 M36.4,49.3c0,0-0.1,0-0.1,0c-0.6-0.1-1.1-0.6-1.1-1.3c0.1-0.6,0.6-1.1,1.2-1.1c0,0,0.1,0,0.1,0c0.6,0.1,1.1,0.6,1.1,1.3
			C37.5,48.9,37,49.3,36.4,49.3z"/>
		<path id="XMLID_444_" class="st8" d="M36.4,49.4c0,0-0.1,0-0.1,0c-0.3,0-0.6-0.2-0.8-0.4c-0.2-0.2-0.3-0.6-0.3-0.9
			c0.1-0.6,0.6-1.1,1.2-1.1c0,0,0.1,0,0.1,0c0.7,0.1,1.1,0.6,1.1,1.3C37.5,48.9,37,49.4,36.4,49.4z M36.4,47.1c-0.5,0-1,0.4-1,1
			c-0.1,0.6,0.4,1.1,0.9,1.1c0,0,0.1,0,0.1,0c0.5,0,1-0.4,1-1c0.1-0.6-0.4-1.1-0.9-1.2C36.5,47.1,36.4,47.1,36.4,47.1z"/>
		<path id="XMLID_439_" class="st9" d="M36.4,47L36.4,47c0,0,0.1,0,0.1,0c0.6,0.1,1.1,0.6,1.1,1.3c-0.1,0.6-0.6,1.1-1.2,1.1
			c0,0-0.1,0-0.1,0c-0.3,0-0.6-0.2-0.8-0.4c-0.2-0.2-0.3-0.6-0.3-0.9C35.3,47.4,35.8,47,36.4,47L36.4,47 M36.4,49.2
			c0.5,0,1-0.4,1.1-1c0.1-0.6-0.4-1.1-1-1.2c0,0-0.1,0-0.1,0c-0.5,0-1,0.4-1.1,1c0,0.3,0.1,0.6,0.2,0.8c0.2,0.2,0.4,0.4,0.7,0.4
			C36.3,49.2,36.4,49.2,36.4,49.2 M36.4,47c-0.6,0-1.1,0.5-1.2,1.1c-0.1,0.7,0.4,1.2,1.1,1.3c0,0,0.1,0,0.1,0c0.6,0,1.1-0.5,1.2-1.1
			c0.1-0.7-0.4-1.2-1.1-1.3C36.5,47,36.4,47,36.4,47z M36.4,49.2c0,0-0.1,0-0.1,0c-0.6-0.1-1-0.6-0.9-1.1c0.1-0.5,0.5-0.9,1-0.9
			c0,0,0.1,0,0.1,0c0.6,0.1,1,0.6,0.9,1.1C37.4,48.8,36.9,49.2,36.4,49.2z"/>
		<path id="XMLID_436_" class="st7" d="M36.8,47.2c-0.5-0.2-1.1,0-1.3,0.5c-0.2,0.5,0,1.1,0.5,1.3c0.5,0.2,1.1,0,1.3-0.5
			C37.5,48,37.3,47.5,36.8,47.2z M36.1,48.8c-0.3-0.1-0.5-0.5-0.3-0.8c0.1-0.3,0.5-0.5,0.8-0.3c0.3,0.1,0.5,0.5,0.3,0.8
			C36.8,48.7,36.5,48.9,36.1,48.8z"/>
		<path id="XMLID_433_" class="st8" d="M36.4,48.8c-0.1,0-0.2,0-0.2,0c-0.2-0.1-0.3-0.2-0.3-0.3c-0.1-0.2-0.1-0.3,0-0.5
			c0.1-0.2,0.3-0.4,0.6-0.4c0.1,0,0.2,0,0.2,0c0.2,0.1,0.3,0.2,0.3,0.3c0.1,0.2,0.1,0.3,0,0.5C36.9,48.6,36.6,48.8,36.4,48.8z
			 M36.4,47.6c-0.2,0-0.4,0.1-0.5,0.3c-0.1,0.1-0.1,0.3,0,0.4c0.1,0.1,0.2,0.2,0.3,0.3c0.1,0,0.1,0,0.2,0c0.2,0,0.4-0.1,0.5-0.3
			c0.1-0.1,0.1-0.3,0-0.4c-0.1-0.1-0.2-0.2-0.3-0.3C36.5,47.6,36.5,47.6,36.4,47.6z"/>
		<path id="XMLID_428_" class="st9" d="M36.4,47.5L36.4,47.5c0.1,0,0.2,0,0.2,0.1c0.2,0.1,0.3,0.2,0.3,0.3c0.1,0.2,0.1,0.3,0,0.5
			c-0.1,0.2-0.3,0.4-0.6,0.4c-0.1,0-0.2,0-0.2,0c-0.2-0.1-0.3-0.2-0.3-0.3c-0.1-0.2-0.1-0.3,0-0.5C35.9,47.7,36.1,47.5,36.4,47.5
			L36.4,47.5 M36.4,48.7c0.2,0,0.4-0.1,0.5-0.3c0.1-0.1,0.1-0.3,0-0.4c-0.1-0.1-0.2-0.2-0.3-0.3c-0.1,0-0.1,0-0.2,0
			c-0.2,0-0.4,0.1-0.5,0.3c-0.1,0.1-0.1,0.3,0,0.4c0.1,0.1,0.2,0.2,0.3,0.3C36.2,48.7,36.3,48.7,36.4,48.7 M36.4,47.5
			c-0.2,0-0.5,0.1-0.6,0.4c-0.1,0.3,0,0.7,0.3,0.8c0.1,0,0.2,0,0.2,0c0.2,0,0.5-0.1,0.6-0.4c0.1-0.3,0-0.7-0.3-0.8
			C36.5,47.6,36.5,47.5,36.4,47.5z M36.4,48.7c-0.1,0-0.1,0-0.2,0c-0.3-0.1-0.4-0.4-0.3-0.7c0.1-0.2,0.3-0.3,0.5-0.3
			c0.1,0,0.1,0,0.2,0c0.3,0.1,0.4,0.4,0.3,0.7C36.8,48.6,36.6,48.7,36.4,48.7z"/>
		<path id="XMLID_425_" class="st8" d="M36.9,46.5c-0.9-0.3-1.9,0.2-2.1,1.2c-0.3,0.9,0.2,1.9,1.2,2.1c0.9,0.3,1.9-0.2,2.1-1.2
			C38.3,47.7,37.8,46.8,36.9,46.5z M36.1,49.2c-0.6-0.2-0.9-0.8-0.8-1.4c0.2-0.6,0.8-0.9,1.4-0.8c0.6,0.2,0.9,0.8,0.8,1.4
			C37.3,49.1,36.7,49.4,36.1,49.2z"/>
		<path id="XMLID_422_" class="st7" d="M36.9,46.6L36.9,46.6c-0.2-0.1-0.3-0.1-0.5-0.1c-0.7,0-1.4,0.5-1.6,1.2
			c0,0.2-0.1,0.3-0.1,0.5c0,0.7,0.5,1.4,1.2,1.6c0.2,0,0.3,0.1,0.5,0.1c0.7,0,1.4-0.5,1.6-1.2c0-0.2,0.1-0.3,0.1-0.5
			C38,47.4,37.6,46.8,36.9,46.6L36.9,46.6L36.9,46.6c0.7,0.2,1.2,0.9,1.2,1.6c0,0.2,0,0.3-0.1,0.5c-0.2,0.7-0.9,1.2-1.6,1.2
			c-0.2,0-0.3,0-0.5-0.1c-0.7-0.2-1.2-0.9-1.2-1.6c0-0.2,0-0.3,0.1-0.5c0.2-0.7,0.9-1.2,1.6-1.2C36.5,46.5,36.7,46.6,36.9,46.6
			L36.9,46.6z M36.1,49.2L36.1,49.2c-0.5-0.2-0.8-0.6-0.8-1.1c0-0.1,0-0.2,0-0.3c0.1-0.5,0.6-0.8,1.1-0.8c0.1,0,0.2,0,0.3,0
			c0.5,0.1,0.8,0.6,0.8,1.1c0,0.1,0,0.2,0,0.3c-0.1,0.5-0.6,0.8-1.1,0.8C36.3,49.3,36.2,49.3,36.1,49.2L36.1,49.2L36.1,49.2
			c0.1,0,0.2,0.1,0.3,0.1c0.5,0,0.9-0.3,1.1-0.8c0-0.1,0-0.2,0-0.3c0-0.5-0.3-0.9-0.8-1.1c-0.1,0-0.2,0-0.3,0
			c-0.5,0-0.9,0.3-1.1,0.8c0,0.1,0,0.2,0,0.3C35.3,48.7,35.6,49.1,36.1,49.2L36.1,49.2z"/>
		<path id="XMLID_419_" class="st10" d="M36.4,49.4c-0.1,0-0.2,0-0.4-0.1c-0.3-0.1-0.6-0.3-0.8-0.6c-0.2-0.3-0.2-0.6-0.1-1
			c0.2-0.5,0.7-0.9,1.2-0.9c0.1,0,0.2,0,0.4,0.1c0.7,0.2,1.1,0.9,0.9,1.6C37.4,49.1,36.9,49.4,36.4,49.4z M36.4,47
			c-0.5,0-0.9,0.3-1.1,0.8c-0.1,0.3-0.1,0.6,0.1,0.9c0.1,0.3,0.4,0.5,0.7,0.5c0.1,0,0.2,0,0.3,0c0.5,0,0.9-0.3,1.1-0.8
			c0.1-0.3,0.1-0.6-0.1-0.9c-0.1-0.3-0.4-0.5-0.7-0.5C36.6,47,36.5,47,36.4,47z"/>
		<path id="XMLID_414_" class="st9" d="M36.4,46.9L36.4,46.9c0.1,0,0.2,0,0.4,0.1c0.7,0.2,1,0.9,0.8,1.6c-0.2,0.5-0.6,0.9-1.2,0.9
			c-0.1,0-0.2,0-0.4-0.1c-0.3-0.1-0.6-0.3-0.7-0.6c-0.2-0.3-0.2-0.6-0.1-1C35.3,47.3,35.8,46.9,36.4,46.9 M36.4,49.3
			c0.5,0,1-0.3,1.1-0.8c0.1-0.3,0.1-0.6-0.1-0.9c-0.1-0.3-0.4-0.5-0.7-0.6c-0.1,0-0.2,0-0.3,0c-0.5,0-1,0.3-1.1,0.8
			c-0.1,0.3-0.1,0.6,0.1,0.9c0.1,0.3,0.4,0.5,0.7,0.6C36.2,49.3,36.3,49.3,36.4,49.3 M36.4,46.9c-0.6,0-1.1,0.4-1.2,0.9
			c-0.2,0.7,0.2,1.4,0.9,1.6c0.1,0,0.2,0.1,0.4,0.1c0.6,0,1.1-0.4,1.2-0.9c0.2-0.7-0.2-1.4-0.9-1.6C36.6,46.9,36.5,46.9,36.4,46.9z
			 M36.4,49.3c-0.1,0-0.2,0-0.3,0c-0.6-0.2-0.9-0.8-0.8-1.4c0.1-0.5,0.6-0.8,1.1-0.8c0.1,0,0.2,0,0.3,0c0.6,0.2,0.9,0.8,0.8,1.4
			C37.3,49,36.9,49.3,36.4,49.3z"/>
		<path id="XMLID_411_" class="st8" d="M36.4,49.3c-0.1,0-0.2,0-0.3,0c-0.3-0.1-0.5-0.3-0.7-0.5c-0.1-0.3-0.2-0.6-0.1-0.9
			c0.1-0.5,0.6-0.8,1.1-0.8c0.1,0,0.2,0,0.3,0c0.6,0.2,0.9,0.8,0.8,1.4C37.3,49,36.9,49.3,36.4,49.3z M36.4,47.2
			c-0.4,0-0.8,0.3-1,0.7c-0.1,0.3,0,0.5,0.1,0.8s0.3,0.4,0.6,0.5c0.1,0,0.2,0,0.3,0c0.4,0,0.8-0.3,1-0.7c0.2-0.5-0.1-1.1-0.7-1.2
			C36.6,47.2,36.5,47.2,36.4,47.2z"/>
		<path id="XMLID_406_" class="st9" d="M36.4,47L36.4,47c0.1,0,0.2,0,0.3,0.1c0.6,0.2,0.9,0.8,0.8,1.4c-0.1,0.5-0.6,0.8-1.1,0.8
			c-0.1,0-0.2,0-0.3,0c-0.3-0.1-0.5-0.3-0.7-0.5c-0.1-0.3-0.2-0.6-0.1-0.9C35.4,47.4,35.9,47,36.4,47L36.4,47 M36.4,49.2
			c0.4,0,0.8-0.3,1-0.7c0.2-0.5-0.1-1.1-0.7-1.3c-0.1,0-0.2,0-0.3,0c-0.4,0-0.8,0.3-1,0.7c-0.1,0.3,0,0.5,0.1,0.8
			c0.1,0.2,0.3,0.4,0.6,0.5C36.2,49.2,36.3,49.2,36.4,49.2 M36.4,47c-0.5,0-0.9,0.3-1.1,0.8c-0.2,0.6,0.2,1.2,0.8,1.4
			c0.1,0,0.2,0,0.3,0c0.5,0,0.9-0.3,1.1-0.8c0.2-0.6-0.2-1.2-0.8-1.4C36.6,47,36.5,47,36.4,47z M36.4,49.2c-0.1,0-0.2,0-0.3,0
			c-0.5-0.2-0.8-0.7-0.7-1.2c0.1-0.4,0.5-0.7,1-0.7c0.1,0,0.2,0,0.3,0c0.5,0.2,0.8,0.7,0.7,1.2C37.2,48.9,36.8,49.2,36.4,49.2z"/>
		<path id="XMLID_403_" class="st7" d="M36.7,47.3c-0.5-0.2-1,0.1-1.2,0.6c-0.2,0.5,0.1,1,0.6,1.2c0.5,0.2,1-0.1,1.2-0.6
			C37.5,48,37.2,47.4,36.7,47.3z M36.2,48.7c-0.3-0.1-0.5-0.5-0.4-0.8c0.1-0.3,0.5-0.5,0.8-0.4c0.3,0.1,0.5,0.5,0.4,0.8
			C36.8,48.7,36.5,48.8,36.2,48.7z"/>
		<path id="XMLID_400_" class="st8" d="M36.4,48.8c-0.1,0-0.1,0-0.2,0c-0.1-0.1-0.3-0.2-0.3-0.3c-0.1-0.1-0.1-0.3,0-0.5
			c0.1-0.2,0.3-0.4,0.6-0.4c0.1,0,0.1,0,0.2,0c0.3,0.1,0.5,0.5,0.4,0.8C36.9,48.6,36.6,48.8,36.4,48.8z M36.4,47.6
			c-0.2,0-0.4,0.1-0.5,0.4c0,0.1,0,0.3,0,0.4c0.1,0.1,0.2,0.2,0.3,0.3c0.1,0,0.1,0,0.2,0c0.2,0,0.4-0.1,0.5-0.4c0-0.1,0-0.3,0-0.4
			c-0.1-0.1-0.2-0.2-0.3-0.3C36.5,47.6,36.4,47.6,36.4,47.6z"/>
		<path id="XMLID_395_" class="st9" d="M36.4,47.6L36.4,47.6c0.1,0,0.1,0,0.2,0c0.3,0.1,0.5,0.4,0.4,0.8c-0.1,0.2-0.3,0.4-0.6,0.4
			c-0.1,0-0.1,0-0.2,0c-0.1-0.1-0.3-0.2-0.3-0.3c-0.1-0.1-0.1-0.3,0-0.5C35.9,47.7,36.1,47.6,36.4,47.6L36.4,47.6 M36.4,48.7
			c0.2,0,0.4-0.1,0.5-0.4c0-0.1,0-0.3,0-0.4c-0.1-0.1-0.2-0.2-0.3-0.3c-0.1,0-0.1,0-0.2,0c-0.2,0-0.4,0.1-0.5,0.4c0,0.1,0,0.3,0,0.4
			c0.1,0.1,0.2,0.2,0.3,0.3C36.3,48.7,36.3,48.7,36.4,48.7 M36.4,47.6c-0.2,0-0.5,0.2-0.6,0.4c-0.1,0.3,0.1,0.7,0.4,0.8
			c0.1,0,0.1,0,0.2,0c0.2,0,0.5-0.2,0.6-0.4c0.1-0.3-0.1-0.7-0.4-0.8C36.5,47.6,36.5,47.6,36.4,47.6z M36.4,48.7c-0.1,0-0.1,0-0.2,0
			c-0.3-0.1-0.4-0.4-0.3-0.7c0.1-0.2,0.3-0.3,0.5-0.3c0.1,0,0.1,0,0.2,0c0.3,0.1,0.4,0.4,0.3,0.7C36.8,48.6,36.6,48.7,36.4,48.7z"/>
		<path id="XMLID_392_" class="st7" d="M36.8,46.5c-0.9-0.2-1.8,0.3-2,1.2c-0.2,0.9,0.3,1.8,1.2,2c0.9,0.2,1.8-0.3,2-1.2
			C38.2,47.7,37.7,46.8,36.8,46.5z M36.1,49.2c-0.6-0.1-0.9-0.7-0.8-1.3c0.1-0.6,0.7-0.9,1.3-0.8c0.6,0.1,0.9,0.7,0.8,1.3
			C37.3,49,36.7,49.3,36.1,49.2z"/>
		<path id="XMLID_389_" class="st8" d="M36.8,46.6c-0.9-0.2-1.7,0.3-2,1.2c-0.2,0.9,0.3,1.7,1.2,2c0.9,0.2,1.7-0.3,2-1.2
			C38.2,47.7,37.6,46.8,36.8,46.6z M36.1,49.2c-0.6-0.1-0.9-0.7-0.8-1.3c0.1-0.6,0.7-0.9,1.3-0.8c0.6,0.1,0.9,0.7,0.8,1.3
			C37.3,49,36.7,49.3,36.1,49.2z"/>
		<path id="XMLID_386_" class="st7" d="M36.7,46.6L36.7,46.6c-0.1,0-0.2-0.1-0.4-0.1c-0.7,0-1.4,0.5-1.5,1.2c0,0.1,0,0.2,0,0.4
			c0,0.7,0.5,1.4,1.2,1.5c0.1,0,0.2,0,0.4,0c0.7,0,1.4-0.5,1.5-1.2c0-0.1,0-0.2,0-0.4C38,47.5,37.5,46.8,36.7,46.6L36.7,46.6
			L36.7,46.6c0.7,0.2,1.2,0.8,1.2,1.5c0,0.1,0,0.2,0,0.4c-0.2,0.7-0.8,1.2-1.5,1.2c-0.1,0-0.2,0-0.4,0c-0.7-0.2-1.2-0.8-1.2-1.5
			c0-0.1,0-0.2,0-0.4c0.2-0.7,0.8-1.2,1.5-1.2C36.5,46.6,36.6,46.6,36.7,46.6L36.7,46.6z M36.1,49.2L36.1,49.2
			c-0.5-0.1-0.8-0.6-0.8-1c0-0.1,0-0.2,0-0.2c0.1-0.5,0.5-0.8,1-0.8c0.1,0,0.2,0,0.2,0c0.5,0.1,0.8,0.5,0.8,1c0,0.1,0,0.2,0,0.2
			c-0.1,0.5-0.5,0.8-1,0.8C36.3,49.2,36.2,49.2,36.1,49.2L36.1,49.2L36.1,49.2c0.1,0,0.2,0,0.2,0c0.5,0,0.9-0.3,1-0.8
			c0-0.1,0-0.2,0-0.3c0-0.5-0.3-0.9-0.8-1c-0.1,0-0.2,0-0.3,0c-0.5,0-0.9,0.3-1,0.8c0,0.1,0,0.2,0,0.3
			C35.3,48.7,35.6,49.1,36.1,49.2L36.1,49.2z"/>
		<path id="XMLID_383_" class="st10" d="M36.4,49.4c-0.1,0-0.2,0-0.3,0c-0.3-0.1-0.6-0.3-0.7-0.5c-0.2-0.3-0.2-0.6-0.1-0.9
			c0.1-0.5,0.6-0.9,1.2-0.9c0.1,0,0.2,0,0.3,0c0.3,0.1,0.6,0.3,0.7,0.5c0.2,0.3,0.2,0.6,0.1,0.9C37.4,49,36.9,49.4,36.4,49.4z
			 M36.4,47.1c-0.5,0-0.9,0.3-1,0.8c-0.1,0.3,0,0.6,0.1,0.8c0.2,0.2,0.4,0.4,0.7,0.5c0.1,0,0.2,0,0.3,0c0.5,0,0.9-0.3,1-0.8
			c0.1-0.3,0-0.6-0.1-0.8c-0.2-0.2-0.4-0.4-0.7-0.5C36.6,47.1,36.5,47.1,36.4,47.1z"/>
		<path id="XMLID_378_" class="st9" d="M36.4,47L36.4,47c0.1,0,0.2,0,0.3,0c0.3,0.1,0.6,0.3,0.7,0.5c0.2,0.3,0.2,0.6,0.1,0.9
			c-0.1,0.5-0.6,0.9-1.2,0.9c-0.1,0-0.2,0-0.3,0c-0.3-0.1-0.6-0.3-0.7-0.5c-0.2-0.3-0.2-0.6-0.1-0.9C35.4,47.4,35.8,47,36.4,47
			 M36.4,49.3c0.5,0,0.9-0.3,1.1-0.8c0.1-0.3,0-0.6-0.1-0.8c-0.2-0.2-0.4-0.4-0.7-0.5c-0.1,0-0.2,0-0.3,0c-0.5,0-0.9,0.3-1.1,0.8
			c-0.1,0.3,0,0.6,0.1,0.8c0.2,0.2,0.4,0.4,0.7,0.5C36.2,49.2,36.3,49.3,36.4,49.3 M36.4,46.9c-0.6,0-1,0.4-1.2,0.9
			c-0.2,0.7,0.2,1.3,0.9,1.5c0.1,0,0.2,0,0.3,0c0.5,0,1-0.4,1.2-0.9c0.2-0.7-0.2-1.3-0.9-1.5C36.6,47,36.5,46.9,36.4,46.9z
			 M36.4,49.2c-0.1,0-0.2,0-0.2,0c-0.6-0.1-0.9-0.7-0.8-1.3c0.1-0.5,0.6-0.8,1-0.8c0.1,0,0.2,0,0.2,0c0.6,0.1,0.9,0.7,0.8,1.3
			C37.3,48.9,36.9,49.2,36.4,49.2z"/>
		<path id="XMLID_375_" class="st8" d="M36.4,49.2c-0.1,0-0.2,0-0.3,0c-0.3-0.1-0.5-0.2-0.7-0.5c-0.2-0.2-0.2-0.5-0.1-0.8
			c0.1-0.5,0.5-0.8,1-0.8c0.1,0,0.2,0,0.3,0c0.3,0.1,0.5,0.2,0.7,0.5c0.2,0.2,0.2,0.5,0.1,0.8C37.3,48.9,36.9,49.2,36.4,49.2z
			 M36.4,47.2c-0.4,0-0.8,0.3-0.9,0.7c-0.1,0.2,0,0.5,0.1,0.7c0.1,0.2,0.3,0.4,0.6,0.4c0.1,0,0.1,0,0.2,0l0,0c0.4,0,0.8-0.3,0.9-0.7
			c0.1-0.5-0.2-1-0.7-1.1C36.5,47.2,36.5,47.2,36.4,47.2z"/>
		<path id="XMLID_370_" class="st9" d="M36.4,47.1L36.4,47.1c0.1,0,0.2,0,0.2,0c0.3,0.1,0.5,0.2,0.7,0.5c0.1,0.2,0.2,0.5,0.1,0.8
			c-0.1,0.5-0.5,0.8-1,0.8c-0.1,0-0.2,0-0.2,0c-0.3-0.1-0.5-0.2-0.7-0.5c-0.1-0.2-0.2-0.5-0.1-0.8C35.5,47.4,35.9,47.1,36.4,47.1
			L36.4,47.1 M36.4,49.1c0.4,0,0.8-0.3,0.9-0.7c0.1-0.5-0.2-1-0.7-1.2c-0.1,0-0.1,0-0.2,0c-0.4,0-0.8,0.3-0.9,0.7
			c-0.1,0.2,0,0.5,0.1,0.7c0.1,0.2,0.3,0.4,0.6,0.4C36.2,49.1,36.3,49.1,36.4,49.1 M36.4,47.1c-0.5,0-0.9,0.3-1,0.8
			c-0.1,0.6,0.2,1.2,0.8,1.3c0.1,0,0.2,0,0.3,0c0.5,0,0.9-0.3,1-0.8c0.1-0.6-0.2-1.2-0.8-1.3C36.6,47.1,36.5,47.1,36.4,47.1z
			 M36.4,49.1c-0.1,0-0.1,0-0.2,0c-0.5-0.1-0.8-0.6-0.7-1.1c0.1-0.4,0.5-0.7,0.9-0.7c0.1,0,0.1,0,0.2,0c0.5,0.1,0.8,0.6,0.7,1.1
			C37.2,48.8,36.8,49.1,36.4,49.1z"/>
		<path id="XMLID_367_" class="st7" d="M36.6,47.3c-0.5-0.1-1,0.2-1.1,0.6c-0.1,0.5,0.1,1,0.6,1.1c0.5,0.1,1-0.2,1.1-0.6
			C37.4,47.9,37.1,47.4,36.6,47.3z M36.2,48.7c-0.3-0.1-0.5-0.4-0.4-0.7c0.1-0.3,0.4-0.5,0.7-0.4c0.3,0.1,0.5,0.4,0.4,0.7
			C36.9,48.6,36.5,48.8,36.2,48.7z"/>
		<path id="XMLID_364_" class="st8" d="M36.4,48.7c-0.1,0-0.1,0-0.2,0c-0.1,0-0.3-0.1-0.3-0.3c-0.1-0.1-0.1-0.3-0.1-0.4
			c0.1-0.2,0.3-0.4,0.5-0.4c0.1,0,0.1,0,0.2,0c0.3,0.1,0.5,0.4,0.4,0.7C36.9,48.6,36.6,48.7,36.4,48.7z M36.4,47.7
			c-0.2,0-0.4,0.2-0.5,0.4c0,0.1,0,0.3,0,0.4c0.1,0.1,0.2,0.2,0.3,0.2c0,0,0.1,0,0.1,0c0.2,0,0.4-0.2,0.5-0.4c0-0.1,0-0.3,0-0.4
			c-0.1-0.1-0.2-0.2-0.3-0.2C36.5,47.7,36.4,47.7,36.4,47.7z"/>
		<path id="XMLID_359_" class="st9" d="M36.4,47.6L36.4,47.6c0.1,0,0.1,0,0.1,0c0.3,0.1,0.5,0.4,0.4,0.7c-0.1,0.2-0.3,0.4-0.5,0.4
			c-0.1,0-0.1,0-0.1,0c-0.1,0-0.3-0.1-0.3-0.3c-0.1-0.1-0.1-0.3-0.1-0.4C35.9,47.8,36.1,47.6,36.4,47.6 M36.4,48.7
			c0.2,0,0.4-0.2,0.5-0.4c0-0.1,0-0.3,0-0.4c-0.1-0.1-0.2-0.2-0.3-0.2c0,0-0.1,0-0.1,0c-0.2,0-0.4,0.2-0.5,0.4c0,0.1,0,0.3,0,0.4
			c0.1,0.1,0.2,0.2,0.3,0.2C36.3,48.7,36.3,48.7,36.4,48.7 M36.4,47.6c-0.3,0-0.5,0.2-0.5,0.4c-0.1,0.3,0.1,0.6,0.4,0.7
			c0.1,0,0.1,0,0.2,0c0.3,0,0.5-0.2,0.5-0.4c0.1-0.3-0.1-0.6-0.4-0.7C36.5,47.6,36.4,47.6,36.4,47.6z M36.4,48.7c0,0-0.1,0-0.1,0
			c-0.3-0.1-0.4-0.3-0.3-0.6c0.1-0.2,0.3-0.4,0.5-0.4c0,0,0.1,0,0.1,0c0.3,0.1,0.4,0.3,0.3,0.6C36.8,48.5,36.6,48.7,36.4,48.7z"/>
		<path id="XMLID_356_" class="st7" d="M36.6,46.6c-0.9-0.1-1.7,0.4-1.8,1.3c-0.1,0.9,0.4,1.7,1.3,1.8c0.9,0.1,1.7-0.4,1.8-1.3
			C38.1,47.6,37.5,46.7,36.6,46.6z M36.2,49.2c-0.6-0.1-0.9-0.6-0.8-1.2c0.1-0.6,0.6-0.9,1.2-0.8c0.6,0.1,0.9,0.6,0.8,1.2
			C37.3,48.9,36.8,49.3,36.2,49.2z"/>
		<path id="XMLID_353_" class="st8" d="M36.6,46.6c-0.8-0.1-1.6,0.4-1.8,1.3c-0.1,0.8,0.4,1.6,1.3,1.8c0.8,0.1,1.6-0.4,1.8-1.3
			C38,47.6,37.5,46.8,36.6,46.6z M36.2,49.2c-0.6-0.1-0.9-0.6-0.8-1.2c0.1-0.6,0.6-0.9,1.2-0.8c0.6,0.1,0.9,0.6,0.8,1.2
			C37.3,48.9,36.8,49.3,36.2,49.2z"/>
		<path id="XMLID_350_" class="st7" d="M36.6,46.7L36.6,46.7c-0.1,0-0.2,0-0.2,0c-0.7,0-1.4,0.5-1.5,1.3c0,0.1,0,0.2,0,0.2
			c0,0.7,0.5,1.4,1.3,1.5c0.1,0,0.2,0,0.2,0c0.7,0,1.4-0.5,1.5-1.3c0-0.1,0-0.2,0-0.2C37.9,47.4,37.4,46.8,36.6,46.7L36.6,46.7
			L36.6,46.7c0.7,0.1,1.2,0.8,1.2,1.5c0,0.1,0,0.2,0,0.2c-0.1,0.7-0.7,1.2-1.5,1.2c-0.1,0-0.2,0-0.2,0c-0.7-0.1-1.2-0.7-1.2-1.5
			c0-0.1,0-0.2,0-0.2c0.1-0.7,0.7-1.2,1.5-1.2C36.5,46.7,36.5,46.7,36.6,46.7L36.6,46.7z M36.2,49.2L36.2,49.2
			c-0.5-0.1-0.8-0.5-0.8-1c0-0.1,0-0.1,0-0.2c0.1-0.5,0.5-0.8,1-0.8c0.1,0,0.1,0,0.2,0c0.5,0.1,0.8,0.5,0.8,1c0,0.1,0,0.1,0,0.2
			c-0.1,0.5-0.5,0.8-1,0.8C36.3,49.2,36.3,49.2,36.2,49.2L36.2,49.2L36.2,49.2c0.1,0,0.1,0,0.2,0c0.5,0,0.9-0.4,1-0.9
			c0-0.1,0-0.1,0-0.2c0-0.5-0.4-0.9-0.9-1c-0.1,0-0.1,0-0.2,0c-0.5,0-0.9,0.4-1,0.9c0,0.1,0,0.1,0,0.2
			C35.4,48.7,35.7,49.1,36.2,49.2L36.2,49.2z"/>
		<path id="XMLID_347_" class="st10" d="M36.4,49.3c-0.1,0-0.1,0-0.2,0c-0.3,0-0.6-0.2-0.7-0.5c-0.2-0.2-0.3-0.5-0.2-0.9
			c0.1-0.6,0.6-1,1.1-1c0.1,0,0.1,0,0.2,0c0.3,0,0.6,0.2,0.7,0.5s0.3,0.5,0.2,0.9C37.4,48.9,37,49.3,36.4,49.3z M36.4,47.1
			c-0.5,0-0.9,0.4-1,0.9c0,0.3,0,0.5,0.2,0.8c0.2,0.2,0.4,0.4,0.7,0.4c0.1,0,0.1,0,0.2,0h0c0.5,0,0.9-0.4,1-0.9c0-0.3,0-0.5-0.2-0.8
			c-0.2-0.2-0.4-0.4-0.7-0.4C36.5,47.1,36.4,47.1,36.4,47.1z"/>
		<path id="XMLID_342_" class="st9" d="M36.4,47L36.4,47c0.1,0,0.1,0,0.2,0c0.3,0,0.6,0.2,0.7,0.5c0.2,0.2,0.2,0.5,0.2,0.8
			c-0.1,0.6-0.6,1-1.1,1c-0.1,0-0.1,0-0.2,0c-0.3,0-0.6-0.2-0.7-0.5c-0.2-0.2-0.2-0.5-0.2-0.8C35.4,47.4,35.8,47,36.4,47 M36.4,49.2
			c0.5,0,0.9-0.4,1-0.9c0-0.3,0-0.5-0.2-0.8c-0.2-0.2-0.4-0.4-0.7-0.4c-0.1,0-0.1,0-0.2,0c-0.5,0-0.9,0.4-1,0.9c0,0.3,0,0.5,0.2,0.8
			c0.2,0.2,0.4,0.4,0.7,0.4C36.3,49.2,36.3,49.2,36.4,49.2 M36.4,47c-0.6,0-1,0.4-1.1,1c-0.1,0.6,0.3,1.2,1,1.3c0.1,0,0.1,0,0.2,0
			c0.6,0,1-0.4,1.1-1c0.1-0.6-0.3-1.2-1-1.3C36.5,47,36.4,47,36.4,47z M36.4,49.2c-0.1,0-0.1,0-0.2,0c-0.6-0.1-0.9-0.6-0.8-1.2
			c0.1-0.5,0.5-0.8,1-0.8c0.1,0,0.1,0,0.2,0c0.6,0.1,0.9,0.6,0.8,1.2C37.3,48.8,36.9,49.2,36.4,49.2z"/>
		<path id="XMLID_339_" class="st8" d="M36.4,49.2c-0.1,0-0.1,0-0.2,0c-0.3,0-0.5-0.2-0.7-0.4c-0.2-0.2-0.2-0.5-0.2-0.8
			c0.1-0.5,0.5-0.9,1-0.9c0.1,0,0.1,0,0.2,0c0.6,0.1,0.9,0.6,0.8,1.2C37.3,48.8,36.9,49.2,36.4,49.2z M36.4,47.3
			c-0.4,0-0.8,0.3-0.9,0.8c0,0.2,0,0.5,0.2,0.7c0.1,0.2,0.4,0.3,0.6,0.4c0,0,0.1,0,0.1,0c0.4,0,0.8-0.3,0.9-0.8c0.1-0.5-0.3-1-0.7-1
			C36.5,47.3,36.4,47.3,36.4,47.3z"/>
		<path id="XMLID_334_" class="st9" d="M36.4,47.1L36.4,47.1c0.1,0,0.1,0,0.2,0c0.6,0.1,0.9,0.6,0.8,1.2c-0.1,0.5-0.5,0.9-1,0.9
			c-0.1,0-0.1,0-0.2,0c-0.3,0-0.5-0.2-0.7-0.4c-0.2-0.2-0.2-0.5-0.2-0.8C35.5,47.5,35.9,47.2,36.4,47.1L36.4,47.1 M36.4,49.1
			c0.4,0,0.8-0.3,0.9-0.8c0.1-0.5-0.3-1-0.8-1c0,0-0.1,0-0.1,0c-0.4,0-0.8,0.3-0.9,0.8c0,0.2,0,0.5,0.2,0.7c0.1,0.2,0.4,0.3,0.6,0.4
			C36.3,49.1,36.3,49.1,36.4,49.1 M36.4,47.1c-0.5,0-0.9,0.4-1,0.9c-0.1,0.6,0.3,1.1,0.9,1.2c0.1,0,0.1,0,0.2,0c0.5,0,0.9-0.4,1-0.9
			c0.1-0.6-0.3-1.1-0.9-1.2C36.5,47.1,36.4,47.1,36.4,47.1z M36.4,49.1c0,0-0.1,0-0.1,0c-0.5-0.1-0.8-0.5-0.7-1
			c0.1-0.4,0.5-0.8,0.9-0.8c0,0,0.1,0,0.1,0c0.5,0.1,0.8,0.5,0.7,1C37.2,48.7,36.8,49.1,36.4,49.1z"/>
		<path id="XMLID_331_" class="st7" d="M36.5,47.3c-0.5-0.1-0.9,0.3-1,0.7c-0.1,0.5,0.3,0.9,0.7,1c0.5,0.1,0.9-0.3,1-0.7
			C37.3,47.8,37,47.4,36.5,47.3z M36.3,48.7c-0.3,0-0.5-0.3-0.5-0.6c0-0.3,0.3-0.5,0.6-0.5c0.3,0,0.5,0.3,0.5,0.6
			C36.9,48.5,36.6,48.7,36.3,48.7z"/>
		<path id="XMLID_328_" class="st8" d="M36.4,48.7C36.4,48.7,36.3,48.7,36.4,48.7c-0.2,0-0.3-0.1-0.4-0.2c-0.1-0.1-0.1-0.3-0.1-0.4
			c0-0.3,0.3-0.5,0.5-0.5c0,0,0.1,0,0.1,0c0.3,0,0.5,0.3,0.5,0.6C36.9,48.5,36.6,48.7,36.4,48.7z M36.4,47.7c-0.2,0-0.4,0.2-0.5,0.4
			c0,0.3,0.1,0.5,0.4,0.5c0,0,0,0,0.1,0c0.2,0,0.4-0.2,0.5-0.4c0-0.1,0-0.3-0.1-0.4C36.7,47.8,36.6,47.7,36.4,47.7
			C36.4,47.7,36.4,47.7,36.4,47.7z"/>
		<path id="XMLID_323_" class="st9" d="M36.4,47.6L36.4,47.6C36.4,47.6,36.4,47.6,36.4,47.6c0.4,0,0.6,0.3,0.5,0.6
			c0,0.3-0.3,0.5-0.5,0.5c0,0-0.1,0-0.1,0c-0.1,0-0.3-0.1-0.4-0.2c-0.1-0.1-0.1-0.3-0.1-0.4C35.9,47.8,36.1,47.6,36.4,47.6
			 M36.4,48.6c0.2,0,0.4-0.2,0.5-0.4c0-0.1,0-0.3-0.1-0.4c-0.1-0.1-0.2-0.2-0.3-0.2c0,0,0,0-0.1,0c-0.2,0-0.4,0.2-0.5,0.4
			C35.9,48.4,36.1,48.6,36.4,48.6C36.3,48.6,36.4,48.6,36.4,48.6 M36.4,47.6c-0.3,0-0.5,0.2-0.5,0.5c0,0.3,0.2,0.6,0.5,0.6
			c0,0,0.1,0,0.1,0c0.3,0,0.5-0.2,0.5-0.5C37,47.9,36.8,47.7,36.4,47.6C36.4,47.6,36.4,47.6,36.4,47.6z M36.4,48.6
			C36.4,48.6,36.3,48.6,36.4,48.6c-0.3,0-0.5-0.3-0.5-0.5c0-0.2,0.2-0.4,0.5-0.4c0,0,0,0,0.1,0c0.3,0,0.4,0.3,0.4,0.5
			C36.8,48.5,36.6,48.6,36.4,48.6z"/>
		<path id="XMLID_320_" class="st11" d="M36.3,49.8c-0.9,0-1.6-0.8-1.6-1.7c0-0.9,0.8-1.6,1.7-1.6c0,0,0,0,0.1,0
			c0.9,0,1.6,0.8,1.6,1.7C38,49.1,37.3,49.8,36.3,49.8C36.4,49.8,36.3,49.8,36.3,49.8z M36.4,47.2c-0.5,0-1,0.4-1,0.9
			c0,0.3,0.1,0.5,0.3,0.7c0.2,0.2,0.4,0.3,0.7,0.3c0,0,0,0,0,0c0.5,0,1-0.4,1-0.9c0-0.3-0.1-0.5-0.3-0.7
			C36.9,47.3,36.7,47.2,36.4,47.2C36.4,47.2,36.4,47.2,36.4,47.2z"/>
		<path id="XMLID_315_" class="st7" d="M36.4,46.5C36.4,46.5,36.4,46.5,36.4,46.5c1,0,1.7,0.8,1.6,1.7c0,0.9-0.7,1.6-1.6,1.6
			c0,0,0,0-0.1,0c-0.9,0-1.6-0.8-1.6-1.7C34.8,47.2,35.5,46.5,36.4,46.5 M36.4,49.2c0.5,0,1-0.4,1-1c0-0.3-0.1-0.5-0.3-0.7
			c-0.2-0.2-0.4-0.3-0.7-0.3c0,0,0,0,0,0c-0.5,0-1,0.4-1,1c0,0.3,0.1,0.5,0.3,0.7C35.8,49,36.1,49.2,36.4,49.2
			C36.4,49.2,36.4,49.2,36.4,49.2 M36.4,46.5c-0.9,0-1.6,0.7-1.7,1.6c0,0.9,0.7,1.7,1.6,1.7c0,0,0,0,0.1,0c0.9,0,1.6-0.7,1.7-1.6
			C38.1,47.3,37.4,46.5,36.4,46.5C36.4,46.5,36.4,46.5,36.4,46.5z M36.4,49.1C36.4,49.1,36.4,49.1,36.4,49.1c-0.6,0-1-0.5-1-1
			c0-0.5,0.4-0.9,1-0.9c0,0,0,0,0,0c0.5,0,0.9,0.5,0.9,1C37.3,48.7,36.9,49.1,36.4,49.1z"/>
		<path id="XMLID_312_" class="st7" d="M36.4,46.7c-0.8,0-1.5,0.6-1.6,1.4c0,0.8,0.6,1.5,1.4,1.6c0.8,0,1.5-0.6,1.6-1.4
			C37.9,47.4,37.3,46.7,36.4,46.7z M36.3,49.1c-0.5,0-0.9-0.5-0.9-1c0-0.5,0.5-0.9,1-0.9c0.5,0,0.9,0.5,0.9,1
			C37.3,48.7,36.9,49.1,36.3,49.1z"/>
		<path id="XMLID_309_" class="st8" d="M36.4,46.7c-0.8,0-1.5,0.6-1.5,1.4c0,0.8,0.6,1.5,1.4,1.5c0.8,0,1.5-0.6,1.5-1.4
			C37.9,47.4,37.2,46.7,36.4,46.7z M36.3,49.1c-0.5,0-0.9-0.5-0.9-1c0-0.5,0.5-0.9,1-0.9c0.5,0,0.9,0.5,0.9,1
			C37.3,48.7,36.9,49.1,36.3,49.1z"/>
		<path id="XMLID_306_" class="st7" d="M36.4,46.8L36.4,46.8C36.4,46.7,36.4,46.7,36.4,46.8c-0.8,0-1.4,0.6-1.5,1.4c0,0,0,0,0,0.1
			c0,0.8,0.6,1.4,1.4,1.4c0,0,0,0,0.1,0c0.8,0,1.4-0.6,1.4-1.4c0,0,0,0,0-0.1C37.8,47.4,37.2,46.8,36.4,46.8L36.4,46.8L36.4,46.8
			c0.8,0,1.3,0.7,1.3,1.4c0,0,0,0,0,0.1c0,0.8-0.6,1.3-1.4,1.3c0,0,0,0-0.1,0c-0.8,0-1.3-0.6-1.3-1.4c0,0,0,0,0-0.1
			C35,47.4,35.6,46.8,36.4,46.8C36.4,46.8,36.4,46.8,36.4,46.8L36.4,46.8z M36.3,49.1L36.3,49.1c-0.5,0-0.9-0.5-0.9-1c0,0,0,0,0,0
			c0-0.5,0.4-0.9,0.9-0.9c0,0,0,0,0,0c0.5,0,0.9,0.4,0.9,0.9c0,0,0,0,0,0C37.3,48.7,36.9,49.1,36.3,49.1
			C36.4,49.1,36.4,49.1,36.3,49.1L36.3,49.1L36.3,49.1C36.4,49.1,36.4,49.1,36.3,49.1c0.6,0,1-0.4,1-0.9c0,0,0,0,0,0
			c0-0.5-0.4-1-0.9-1c0,0,0,0,0,0c-0.5,0-0.9,0.4-1,0.9c0,0,0,0,0,0C35.4,48.7,35.8,49.1,36.3,49.1L36.3,49.1z"/>
		<path id="XMLID_303_" class="st10" d="M36.3,49.3c-0.3,0-0.6-0.1-0.8-0.3c-0.2-0.2-0.3-0.5-0.3-0.8c0-0.6,0.5-1,1.1-1c0,0,0,0,0,0
			c0.3,0,0.6,0.1,0.8,0.3c0.2,0.2,0.3,0.5,0.3,0.8C37.4,48.8,37,49.3,36.3,49.3C36.4,49.3,36.4,49.3,36.3,49.3z M36.4,47.2
			c-0.5,0-0.9,0.4-1,0.9c0,0.3,0.1,0.5,0.3,0.7c0.2,0.2,0.4,0.3,0.7,0.3c0,0,0,0,0,0c0.5,0,0.9-0.4,1-0.9c0-0.3-0.1-0.5-0.3-0.7
			C36.9,47.3,36.7,47.2,36.4,47.2C36.4,47.2,36.4,47.2,36.4,47.2z"/>
		<path id="XMLID_298_" class="st9" d="M36.4,47.1L36.4,47.1C36.4,47.1,36.4,47.1,36.4,47.1c0.3,0,0.6,0.1,0.8,0.3
			c0.2,0.2,0.3,0.5,0.3,0.8c0,0.6-0.5,1-1.1,1c0,0,0,0,0,0c-0.3,0-0.6-0.1-0.7-0.3c-0.2-0.2-0.3-0.5-0.3-0.8
			C35.3,47.5,35.8,47.1,36.4,47.1 M36.4,49.1c0.5,0,1-0.4,1-0.9c0-0.3-0.1-0.5-0.3-0.7c-0.2-0.2-0.4-0.3-0.7-0.3c0,0,0,0,0,0
			c-0.5,0-1,0.4-1,0.9c0,0.3,0.1,0.5,0.3,0.7C35.8,49,36.1,49.1,36.4,49.1C36.4,49.1,36.4,49.1,36.4,49.1 M36.4,47.1
			c-0.6,0-1.1,0.5-1.1,1.1c0,0.6,0.4,1.1,1.1,1.1c0,0,0,0,0,0c0.6,0,1.1-0.5,1.1-1.1C37.5,47.6,37,47.1,36.4,47.1
			C36.4,47.1,36.4,47.1,36.4,47.1z M36.4,49.1C36.4,49.1,36.4,49.1,36.4,49.1c-0.6,0-1-0.5-1-1c0-0.5,0.4-0.9,1-0.9c0,0,0,0,0,0
			c0.5,0,0.9,0.5,0.9,1C37.3,48.7,36.9,49.1,36.4,49.1z"/>
		<path id="XMLID_295_" class="st8" d="M36.3,49.1c-0.3,0-0.5-0.1-0.7-0.3c-0.2-0.2-0.3-0.4-0.3-0.7c0-0.5,0.4-0.9,1-0.9
			c0,0,0,0,0,0c0.5,0,1,0.5,0.9,1C37.3,48.7,36.9,49.1,36.3,49.1C36.4,49.1,36.4,49.1,36.3,49.1z M36.4,47.3c-0.5,0-0.8,0.4-0.9,0.8
			c0,0.2,0.1,0.4,0.2,0.6c0.2,0.2,0.4,0.3,0.6,0.3l0,0c0.5,0,0.8-0.4,0.9-0.8C37.3,47.7,36.9,47.3,36.4,47.3L36.4,47.3z"/>
		<path id="XMLID_290_" class="st9" d="M36.4,47.2L36.4,47.2C36.4,47.2,36.4,47.2,36.4,47.2c0.6,0,1,0.5,1,1c0,0.5-0.4,0.9-1,0.9
			c0,0,0,0,0,0c-0.3,0-0.5-0.1-0.7-0.3c-0.2-0.2-0.3-0.4-0.3-0.7C35.4,47.6,35.9,47.2,36.4,47.2L36.4,47.2 M36.4,49
			c0.5,0,0.8-0.4,0.9-0.8c0-0.5-0.4-0.9-0.8-0.9l0,0c-0.5,0-0.8,0.4-0.9,0.8c0,0.2,0.1,0.5,0.2,0.6C35.9,48.9,36.1,49,36.4,49
			L36.4,49 M36.4,47.2c-0.5,0-1,0.4-1,0.9c0,0.5,0.4,1,0.9,1c0,0,0,0,0,0c0.5,0,1-0.4,1-0.9C37.4,47.7,37,47.2,36.4,47.2
			C36.4,47.2,36.4,47.2,36.4,47.2z M36.4,49L36.4,49c-0.5,0-0.9-0.4-0.9-0.9c0-0.5,0.4-0.8,0.9-0.8l0,0c0.5,0,0.8,0.4,0.8,0.9
			C37.2,48.7,36.8,49,36.4,49z"/>
		<path id="XMLID_287_" class="st7" d="M36.7,47.4c-0.4-0.2-0.9,0-1.1,0.5c-0.2,0.4,0,0.9,0.5,1.1c0.4,0.2,0.9,0,1.1-0.5
			C37.3,48,37.1,47.6,36.7,47.4z M36.2,48.6c-0.3-0.1-0.4-0.4-0.3-0.7c0.1-0.3,0.4-0.4,0.7-0.3c0.3,0.1,0.4,0.4,0.3,0.7
			C36.8,48.6,36.5,48.8,36.2,48.6z"/>
		<path id="XMLID_284_" class="st8" d="M36.4,48.7c-0.1,0-0.1,0-0.2,0c-0.1,0-0.2-0.1-0.3-0.3c-0.1-0.1-0.1-0.3,0-0.4
			c0.1-0.2,0.3-0.3,0.5-0.3c0.1,0,0.1,0,0.2,0c0.1,0,0.2,0.1,0.3,0.3c0.1,0.1,0.1,0.3,0,0.4C36.8,48.5,36.6,48.7,36.4,48.7z
			 M36.4,47.7c-0.2,0-0.4,0.1-0.4,0.3c0,0.1,0,0.2,0,0.3c0,0.1,0.1,0.2,0.3,0.2c0.1,0,0.1,0,0.2,0l0,0c0.2,0,0.4-0.1,0.4-0.3
			c0-0.1,0-0.2,0-0.3c0-0.1-0.1-0.2-0.3-0.2C36.5,47.7,36.4,47.7,36.4,47.7z"/>
		<path id="XMLID_279_" class="st9" d="M36.4,47.7L36.4,47.7c0.1,0,0.1,0,0.2,0c0.1,0,0.2,0.1,0.3,0.3c0.1,0.1,0.1,0.3,0,0.4
			c-0.1,0.2-0.3,0.3-0.5,0.3c-0.1,0-0.1,0-0.2,0c-0.1,0-0.2-0.1-0.3-0.3c-0.1-0.1-0.1-0.3,0-0.4C36,47.8,36.2,47.7,36.4,47.7
			L36.4,47.7 M36.4,48.6c0.2,0,0.4-0.1,0.4-0.3c0-0.1,0-0.2,0-0.3c0-0.1-0.1-0.2-0.3-0.2c-0.1,0-0.1,0-0.2,0c-0.2,0-0.4,0.1-0.4,0.3
			c0,0.1,0,0.2,0,0.3c0,0.1,0.1,0.2,0.3,0.2C36.3,48.6,36.3,48.6,36.4,48.6 M36.4,47.7c-0.2,0-0.4,0.1-0.5,0.3
			c-0.1,0.3,0,0.6,0.3,0.7c0.1,0,0.1,0,0.2,0c0.2,0,0.4-0.1,0.5-0.3c0.1-0.3,0-0.6-0.3-0.7C36.5,47.7,36.4,47.7,36.4,47.7z
			 M36.4,48.6c-0.1,0-0.1,0-0.2,0C36,48.5,35.9,48.2,36,48c0.1-0.2,0.2-0.3,0.4-0.3c0.1,0,0.1,0,0.2,0c0.2,0.1,0.3,0.4,0.3,0.6
			C36.7,48.5,36.6,48.6,36.4,48.6z"/>
		<path id="XMLID_276_" class="st11" d="M36.4,49.7c-0.1,0-0.3,0-0.4-0.1c-0.8-0.2-1.3-1.1-1.1-1.9c0.2-0.7,0.8-1.2,1.5-1.2
			c0.1,0,0.3,0,0.4,0.1c0.8,0.2,1.3,1.1,1.1,1.9C37.7,49.3,37.1,49.7,36.4,49.7z M36.4,47.2c-0.4,0-0.8,0.3-0.9,0.7
			c-0.1,0.2,0,0.5,0.1,0.7c0.1,0.2,0.3,0.4,0.6,0.4c0.1,0,0.2,0,0.2,0c0.4,0,0.8-0.3,0.9-0.7c0.1-0.5-0.2-1-0.7-1.1
			C36.5,47.2,36.5,47.2,36.4,47.2z"/>
		<path id="XMLID_271_" class="st7" d="M36.4,46.6c0.1,0,0.3,0,0.4,0.1c0.8,0.2,1.3,1.1,1.1,1.9c-0.2,0.7-0.8,1.1-1.5,1.1
			c-0.1,0-0.3,0-0.4-0.1c-0.8-0.2-1.3-1.1-1.1-1.9C35.1,47.1,35.7,46.6,36.4,46.6 M36.4,49.1c0.4,0,0.8-0.3,0.9-0.7
			c0.1-0.5-0.2-1-0.7-1.2c-0.1,0-0.2,0-0.2,0c-0.4,0-0.8,0.3-0.9,0.7c-0.1,0.2,0,0.5,0.1,0.7c0.1,0.2,0.3,0.4,0.6,0.4
			C36.2,49.1,36.3,49.1,36.4,49.1 M36.4,46.6c-0.7,0-1.3,0.5-1.5,1.2c-0.2,0.8,0.3,1.7,1.1,1.9c0.1,0,0.3,0.1,0.4,0.1
			c0.7,0,1.3-0.5,1.5-1.2c0.2-0.8-0.3-1.7-1.1-1.9C36.7,46.6,36.5,46.6,36.4,46.6z M36.4,49.1c-0.1,0-0.2,0-0.2,0
			c-0.5-0.1-0.8-0.6-0.6-1.1c0.1-0.4,0.5-0.7,0.9-0.7c0.1,0,0.2,0,0.2,0c0.5,0.1,0.8,0.6,0.6,1.1C37.2,48.8,36.8,49.1,36.4,49.1z"/>
		<path id="XMLID_268_" class="st7" d="M36.8,46.8c-0.8-0.2-1.5,0.2-1.8,1c-0.2,0.8,0.2,1.5,1,1.8c0.8,0.2,1.5-0.3,1.8-1
			C38,47.8,37.5,47,36.8,46.8z M36.2,49c-0.5-0.1-0.8-0.6-0.6-1.1c0.1-0.5,0.6-0.8,1.1-0.6c0.5,0.1,0.8,0.6,0.6,1.1
			C37.1,48.9,36.6,49.2,36.2,49z"/>
		<path id="XMLID_265_" class="st8" d="M36.7,46.8c-0.7-0.2-1.5,0.2-1.7,1c-0.2,0.7,0.2,1.5,1,1.7c0.7,0.2,1.5-0.2,1.7-1
			C37.9,47.8,37.5,47,36.7,46.8z M36.2,49c-0.5-0.1-0.8-0.6-0.6-1.1c0.1-0.5,0.6-0.8,1.1-0.6c0.5,0.1,0.8,0.6,0.6,1.1
			C37.1,48.9,36.6,49.2,36.2,49z"/>
		<path id="XMLID_262_" class="st7" d="M36.7,46.9L36.7,46.9c-0.1,0-0.2-0.1-0.3-0.1c-0.6,0-1.1,0.4-1.3,1c0,0.1,0,0.2,0,0.3
			c0,0.6,0.4,1.1,1,1.3c0.1,0,0.2,0,0.3,0c0.6,0,1.1-0.4,1.3-1c0-0.1,0-0.2,0-0.4C37.7,47.6,37.3,47,36.7,46.9L36.7,46.9L36.7,46.9
			c0.6,0.2,1,0.7,1,1.3c0,0.1,0,0.2,0,0.3c-0.2,0.6-0.7,1-1.3,1c-0.1,0-0.2,0-0.3,0c-0.6-0.2-1-0.7-1-1.3c0-0.1,0-0.2,0-0.3
			c0.2-0.6,0.7-1,1.3-1C36.5,46.8,36.6,46.9,36.7,46.9L36.7,46.9z M36.2,49L36.2,49c-0.4-0.1-0.7-0.5-0.7-0.9c0-0.1,0-0.2,0-0.2
			c0.1-0.4,0.5-0.7,0.9-0.7c0.1,0,0.2,0,0.2,0c0.4,0.1,0.7,0.5,0.7,0.9c0,0.1,0,0.2,0,0.2c-0.1,0.4-0.5,0.7-0.9,0.7
			C36.3,49.1,36.2,49.1,36.2,49L36.2,49L36.2,49c0.1,0,0.2,0,0.2,0c0.4,0,0.8-0.3,0.9-0.7c0-0.1,0-0.2,0-0.2c0-0.4-0.3-0.8-0.7-0.9
			c-0.1,0-0.2,0-0.2,0c-0.4,0-0.8,0.3-0.9,0.7c0,0.1,0,0.2,0,0.2C35.5,48.6,35.7,48.9,36.2,49L36.2,49z"/>
		<path id="XMLID_259_" class="st10" d="M36.4,49.2c-0.1,0-0.2,0-0.3,0c-0.3-0.1-0.5-0.2-0.6-0.5c-0.1-0.2-0.2-0.5-0.1-0.8
			c0.1-0.5,0.5-0.8,1-0.8c0.1,0,0.2,0,0.3,0c0.3,0.1,0.5,0.2,0.6,0.5c0.1,0.2,0.2,0.5,0.1,0.8C37.3,48.9,36.9,49.2,36.4,49.2z
			 M36.4,47.2c-0.4,0-0.8,0.3-0.9,0.7c-0.1,0.2,0,0.5,0.1,0.7c0.1,0.2,0.3,0.4,0.6,0.4c0.1,0,0.2,0,0.2,0c0.4,0,0.8-0.3,0.9-0.7
			c0.1-0.5-0.2-1-0.7-1.1C36.5,47.3,36.5,47.2,36.4,47.2z"/>
		<path id="XMLID_254_" class="st9" d="M36.4,47.1L36.4,47.1c0.1,0,0.2,0,0.3,0c0.3,0.1,0.5,0.2,0.6,0.5c0.1,0.2,0.2,0.5,0.1,0.8
			c-0.1,0.4-0.5,0.8-1,0.8c-0.1,0-0.2,0-0.3,0c-0.3-0.1-0.5-0.2-0.6-0.5c-0.1-0.2-0.2-0.5-0.1-0.8C35.5,47.5,35.9,47.1,36.4,47.1
			 M36.4,49.1c0.4,0,0.8-0.3,0.9-0.7c0.1-0.5-0.2-1-0.7-1.1c-0.1,0-0.2,0-0.2,0c-0.4,0-0.8,0.3-0.9,0.7c-0.1,0.2,0,0.5,0.1,0.7
			c0.1,0.2,0.3,0.4,0.6,0.4C36.2,49.1,36.3,49.1,36.4,49.1 M36.4,47.1c-0.5,0-0.9,0.3-1,0.8c-0.1,0.6,0.2,1.1,0.7,1.3
			c0.1,0,0.2,0,0.3,0c0.5,0,0.9-0.3,1-0.8c0.1-0.6-0.2-1.1-0.7-1.3C36.6,47.1,36.5,47.1,36.4,47.1z M36.4,49.1c-0.1,0-0.2,0-0.2,0
			c-0.5-0.1-0.8-0.6-0.6-1.1c0.1-0.4,0.5-0.7,0.9-0.7c0.1,0,0.2,0,0.2,0c0.5,0.1,0.8,0.6,0.6,1.1C37.2,48.8,36.8,49.1,36.4,49.1z"/>
		<path id="XMLID_251_" class="st8" d="M36.4,49.1c-0.1,0-0.2,0-0.2,0c-0.2-0.1-0.4-0.2-0.6-0.4c-0.1-0.2-0.2-0.5-0.1-0.7
			c0.1-0.4,0.5-0.7,0.9-0.7c0.1,0,0.2,0,0.2,0c0.5,0.1,0.8,0.6,0.7,1.1C37.2,48.8,36.8,49.1,36.4,49.1z M36.4,47.3
			c-0.4,0-0.7,0.2-0.8,0.6c-0.1,0.2,0,0.4,0.1,0.6c0.1,0.2,0.3,0.3,0.5,0.4c0.1,0,0.1,0,0.2,0h0c0.4,0,0.7-0.2,0.8-0.6
			c0.1-0.4-0.1-0.9-0.6-1C36.5,47.4,36.5,47.3,36.4,47.3z"/>
		<path id="XMLID_246_" class="st9" d="M36.4,47.3c0.1,0,0.2,0,0.2,0c0.5,0.1,0.8,0.6,0.6,1.1c-0.1,0.4-0.5,0.7-0.9,0.7
			c-0.1,0-0.2,0-0.2,0c-0.2-0.1-0.4-0.2-0.6-0.4c-0.1-0.2-0.2-0.5-0.1-0.7C35.6,47.5,36,47.3,36.4,47.3 M36.4,49
			c0.4,0,0.7-0.3,0.8-0.6c0.1-0.4-0.1-0.9-0.6-1c-0.1,0-0.1,0-0.2,0c-0.4,0-0.7,0.3-0.8,0.6c-0.1,0.2,0,0.4,0.1,0.6
			c0.1,0.2,0.3,0.3,0.5,0.4C36.2,49,36.3,49,36.4,49 M36.4,47.2c-0.4,0-0.8,0.3-0.9,0.7c-0.1,0.5,0.2,1,0.7,1.1c0.1,0,0.2,0,0.2,0
			c0.4,0,0.8-0.3,0.9-0.7c0.1-0.5-0.2-1-0.7-1.1C36.5,47.2,36.5,47.2,36.4,47.2z M36.4,49c-0.1,0-0.1,0-0.2,0
			c-0.4-0.1-0.7-0.6-0.6-1c0.1-0.4,0.4-0.6,0.8-0.6c0.1,0,0.1,0,0.2,0c0.4,0.1,0.7,0.6,0.6,1C37.1,48.7,36.7,49,36.4,49z"/>
		<path id="XMLID_243_" class="st7" d="M36.6,47.4c-0.4-0.1-0.8,0.1-1,0.5c-0.1,0.4,0.1,0.8,0.5,1c0.4,0.1,0.8-0.1,1-0.5
			C37.3,48,37,47.6,36.6,47.4z M36.2,48.6c-0.3-0.1-0.4-0.4-0.3-0.6c0.1-0.3,0.4-0.4,0.6-0.3c0.3,0.1,0.4,0.4,0.3,0.6
			C36.8,48.6,36.5,48.7,36.2,48.6z"/>
		<path id="XMLID_240_" class="st8" d="M36.4,48.7c-0.1,0-0.1,0-0.2,0c-0.3-0.1-0.4-0.4-0.3-0.6c0.1-0.2,0.3-0.3,0.5-0.3
			c0.1,0,0.1,0,0.2,0c0.3,0.1,0.4,0.4,0.3,0.6C36.8,48.5,36.6,48.7,36.4,48.7z M36.4,47.7c-0.2,0-0.3,0.1-0.4,0.3c0,0.1,0,0.2,0,0.3
			c0.1,0.1,0.1,0.2,0.2,0.2c0,0,0.1,0,0.1,0c0.2,0,0.3-0.1,0.4-0.3c0-0.1,0-0.2,0-0.3c-0.1-0.1-0.1-0.2-0.2-0.2
			C36.5,47.7,36.4,47.7,36.4,47.7z"/>
		<path id="XMLID_235_" class="st9" d="M36.4,47.7L36.4,47.7c0.1,0,0.1,0,0.2,0c0.3,0.1,0.4,0.4,0.3,0.6c-0.1,0.2-0.3,0.3-0.5,0.3
			c-0.1,0-0.1,0-0.2,0c-0.3-0.1-0.4-0.4-0.3-0.6C36,47.8,36.2,47.7,36.4,47.7L36.4,47.7 M36.4,48.6c0.2,0,0.4-0.1,0.4-0.3
			c0-0.1,0-0.2,0-0.3c-0.1-0.1-0.1-0.2-0.2-0.2c0,0-0.1,0-0.1,0c-0.2,0-0.4,0.1-0.4,0.3c0,0.1,0,0.2,0,0.3c0.1,0.1,0.1,0.2,0.2,0.2
			C36.3,48.6,36.3,48.6,36.4,48.6 M36.4,47.7c-0.2,0-0.4,0.1-0.5,0.3c-0.1,0.3,0.1,0.5,0.3,0.6c0.1,0,0.1,0,0.2,0
			c0.2,0,0.4-0.1,0.5-0.3c0.1-0.3-0.1-0.5-0.3-0.6C36.5,47.7,36.4,47.7,36.4,47.7z M36.4,48.6c0,0-0.1,0-0.1,0
			C36,48.5,35.9,48.3,36,48c0.1-0.2,0.2-0.3,0.4-0.3c0,0,0.1,0,0.1,0c0.2,0.1,0.3,0.3,0.3,0.5C36.7,48.5,36.6,48.6,36.4,48.6z"/>
		<path id="XMLID_232_" class="st11" d="M36.4,49.7c-0.1,0-0.2,0-0.3,0c-0.8-0.2-1.3-1-1.1-1.8c0.1-0.7,0.8-1.2,1.5-1.2
			c0.1,0,0.2,0,0.3,0c0.8,0.2,1.3,1,1.1,1.8C37.7,49.2,37.1,49.7,36.4,49.7L36.4,49.7z M36.4,47.3c-0.4,0-0.8,0.3-0.9,0.7
			c-0.1,0.2,0,0.5,0.1,0.7c0.1,0.2,0.3,0.3,0.6,0.4c0.1,0,0.1,0,0.2,0c0.4,0,0.8-0.3,0.9-0.7c0.1-0.2,0-0.5-0.1-0.7
			c-0.1-0.2-0.3-0.3-0.6-0.4C36.5,47.3,36.4,47.3,36.4,47.3z"/>
		<path id="XMLID_227_" class="st7" d="M36.4,46.7c0.1,0,0.2,0,0.3,0c0.8,0.2,1.3,1,1.1,1.7c-0.1,0.7-0.7,1.2-1.4,1.2
			c-0.1,0-0.2,0-0.3,0c-0.8-0.2-1.3-1-1.1-1.7C35.1,47.2,35.7,46.7,36.4,46.7 M36.4,49.1c0.4,0,0.8-0.3,0.9-0.7
			c0.1-0.2,0-0.5-0.1-0.7c-0.1-0.2-0.3-0.3-0.6-0.4c-0.1,0-0.1,0-0.2,0c-0.4,0-0.8,0.3-0.9,0.7c-0.1,0.2,0,0.5,0.1,0.7
			c0.1,0.2,0.3,0.3,0.6,0.4C36.3,49.1,36.3,49.1,36.4,49.1 M36.4,46.7c-0.7,0-1.3,0.5-1.5,1.2c-0.2,0.8,0.3,1.6,1.2,1.8
			c0.1,0,0.2,0,0.3,0c0.7,0,1.3-0.5,1.5-1.2c0.2-0.8-0.3-1.6-1.2-1.8C36.6,46.7,36.5,46.7,36.4,46.7z M36.4,49c-0.1,0-0.1,0-0.2,0
			c-0.5-0.1-0.8-0.6-0.7-1c0.1-0.4,0.4-0.7,0.8-0.7c0.1,0,0.1,0,0.2,0c0.5,0.1,0.8,0.6,0.7,1C37.1,48.8,36.8,49,36.4,49z"/>
		<path id="XMLID_224_" class="st7" d="M36.7,46.8c-0.7-0.2-1.5,0.3-1.6,1c-0.2,0.7,0.3,1.5,1,1.6c0.7,0.2,1.5-0.3,1.6-1
			C37.9,47.7,37.4,47,36.7,46.8z M36.2,49c-0.5-0.1-0.8-0.6-0.7-1c0.1-0.5,0.6-0.8,1-0.7c0.5,0.1,0.8,0.6,0.7,1
			C37.1,48.8,36.7,49.1,36.2,49z"/>
		<path id="XMLID_221_" class="st9" d="M36.7,46.9c-0.7-0.2-1.4,0.3-1.6,1c-0.2,0.7,0.3,1.4,1,1.6c0.7,0.2,1.4-0.3,1.6-1
			C37.8,47.7,37.4,47,36.7,46.9z M36.2,49c-0.5-0.1-0.8-0.6-0.7-1c0.1-0.5,0.6-0.8,1-0.7c0.5,0.1,0.8,0.6,0.7,1
			C37.1,48.8,36.7,49.1,36.2,49z"/>
		<path id="XMLID_218_" class="st7" d="M36.7,46.9L36.7,46.9c-0.1,0-0.2,0-0.3,0c-0.6,0-1.1,0.4-1.3,1c0,0.1,0,0.2,0,0.3
			c0,0.6,0.4,1.1,1,1.3c0.1,0,0.2,0,0.3,0c0.6,0,1.1-0.4,1.3-1c0-0.1,0-0.2,0-0.3C37.7,47.6,37.3,47,36.7,46.9L36.7,46.9L36.7,46.9
			c0.6,0.1,1,0.7,1,1.2c0,0.1,0,0.2,0,0.3c-0.1,0.6-0.7,1-1.2,1c-0.1,0-0.2,0-0.3,0c-0.6-0.1-1-0.7-1-1.2c0-0.1,0-0.2,0-0.3
			c0.1-0.6,0.7-1,1.2-1C36.5,46.9,36.6,46.9,36.7,46.9L36.7,46.9z M36.2,49L36.2,49c-0.4-0.1-0.7-0.5-0.7-0.8c0-0.1,0-0.1,0-0.2
			c0.1-0.4,0.4-0.7,0.8-0.7c0.1,0,0.1,0,0.2,0c0.4,0.1,0.7,0.4,0.7,0.8c0,0.1,0,0.1,0,0.2c-0.1,0.4-0.4,0.7-0.8,0.7
			C36.3,49,36.3,49,36.2,49L36.2,49L36.2,49c0.1,0,0.1,0,0.2,0c0.4,0,0.8-0.3,0.9-0.7c0-0.1,0-0.1,0-0.2c0-0.4-0.3-0.8-0.7-0.9
			c-0.1,0-0.1,0-0.2,0c-0.4,0-0.8,0.3-0.9,0.7c0,0.1,0,0.1,0,0.2C35.5,48.6,35.8,48.9,36.2,49L36.2,49z"/>
		<path id="XMLID_215_" class="st10" d="M36.4,49.1c-0.1,0-0.1,0-0.2,0c-0.3-0.1-0.5-0.2-0.6-0.4c-0.1-0.2-0.2-0.5-0.1-0.7
			c0.1-0.4,0.5-0.8,1-0.8c0.1,0,0.1,0,0.2,0c0.3,0.1,0.5,0.2,0.6,0.4c0.1,0.2,0.2,0.5,0.1,0.7C37.2,48.8,36.8,49.1,36.4,49.1z
			 M36.4,47.3c-0.4,0-0.8,0.3-0.9,0.7c-0.1,0.2,0,0.5,0.1,0.7c0.1,0.2,0.3,0.3,0.6,0.4c0.1,0,0.1,0,0.2,0c0.4,0,0.8-0.3,0.9-0.7
			c0.1-0.2,0-0.5-0.1-0.7c-0.1-0.2-0.3-0.3-0.6-0.4C36.5,47.3,36.4,47.3,36.4,47.3z"/>
		<path id="XMLID_210_" class="st9" d="M36.4,47.2L36.4,47.2c0.1,0,0.1,0,0.2,0c0.3,0.1,0.5,0.2,0.6,0.4c0.1,0.2,0.2,0.5,0.1,0.7
			c-0.1,0.4-0.5,0.8-0.9,0.8c-0.1,0-0.1,0-0.2,0c-0.3-0.1-0.5-0.2-0.6-0.4c-0.1-0.2-0.2-0.5-0.1-0.7C35.5,47.5,35.9,47.2,36.4,47.2
			 M36.4,49.1c0.4,0,0.8-0.3,0.9-0.7c0.1-0.2,0-0.5-0.1-0.7c-0.1-0.2-0.3-0.3-0.6-0.4c-0.1,0-0.1,0-0.2,0c-0.4,0-0.8,0.3-0.9,0.7
			c-0.1,0.2,0,0.5,0.1,0.7c0.1,0.2,0.3,0.3,0.6,0.4C36.3,49,36.3,49.1,36.4,49.1 M36.4,47.2c-0.5,0-0.9,0.3-1,0.8
			c-0.1,0.5,0.2,1.1,0.8,1.2c0.1,0,0.1,0,0.2,0c0.5,0,0.9-0.3,1-0.8c0.1-0.5-0.2-1.1-0.8-1.2C36.5,47.2,36.5,47.2,36.4,47.2z
			 M36.4,49c-0.1,0-0.1,0-0.2,0c-0.5-0.1-0.8-0.6-0.7-1c0.1-0.4,0.4-0.7,0.8-0.7c0.1,0,0.1,0,0.2,0c0.5,0.1,0.8,0.6,0.7,1
			C37.1,48.8,36.8,49,36.4,49z"/>
		<path id="XMLID_207_" class="st8" d="M36.4,49c-0.1,0-0.1,0-0.2,0c-0.2,0-0.4-0.2-0.5-0.4c-0.1-0.2-0.2-0.4-0.1-0.7
			c0.1-0.4,0.4-0.7,0.9-0.7c0.1,0,0.1,0,0.2,0c0.5,0.1,0.8,0.6,0.7,1C37.2,48.8,36.8,49,36.4,49z M36.4,47.4c-0.4,0-0.7,0.3-0.8,0.6
			c0,0.2,0,0.4,0.1,0.6c0.1,0.2,0.3,0.3,0.5,0.3c0.1,0,0.1,0,0.2,0c0.4,0,0.7-0.3,0.8-0.6c0.1-0.4-0.2-0.8-0.6-0.9
			C36.5,47.4,36.4,47.4,36.4,47.4z"/>
		<path id="XMLID_202_" class="st9" d="M36.4,47.3L36.4,47.3c0.1,0,0.1,0,0.2,0c0.5,0.1,0.8,0.6,0.7,1c-0.1,0.4-0.4,0.7-0.8,0.7
			c-0.1,0-0.1,0-0.2,0c-0.2,0-0.4-0.2-0.5-0.4c-0.1-0.2-0.2-0.4-0.1-0.7C35.6,47.6,36,47.3,36.4,47.3L36.4,47.3 M36.4,48.9
			c0.4,0,0.7-0.3,0.8-0.6c0.1-0.4-0.2-0.8-0.6-0.9c-0.1,0-0.1,0-0.2,0c-0.4,0-0.7,0.3-0.8,0.6c0,0.2,0,0.4,0.1,0.6
			c0.1,0.2,0.3,0.3,0.5,0.3C36.3,48.9,36.3,48.9,36.4,48.9 M36.4,47.3c-0.4,0-0.8,0.3-0.9,0.7c-0.1,0.5,0.2,0.9,0.7,1
			c0.1,0,0.1,0,0.2,0c0.4,0,0.8-0.3,0.9-0.7c0.1-0.5-0.2-0.9-0.7-1C36.5,47.3,36.4,47.3,36.4,47.3z M36.4,48.9c-0.1,0-0.1,0-0.2,0
			c-0.4-0.1-0.7-0.5-0.6-0.9c0.1-0.4,0.4-0.6,0.8-0.6c0.1,0,0.1,0,0.2,0c0.4,0.1,0.7,0.5,0.6,0.9C37.1,48.7,36.7,48.9,36.4,48.9z"/>
		<path id="XMLID_199_" class="st12" d="M36.4,32.4c4.2,0,8.2,1.6,11.2,4.6c3,3,4.6,7,4.6,11.2c0,4.2-1.6,8.2-4.6,11.2
			c-3,3-7,4.6-11.2,4.6c-4.2,0-8.2-1.6-11.2-4.6c-3-3-4.6-7-4.6-11.2c0-4.2,1.6-8.2,4.6-11.2C28.2,34,32.2,32.4,36.4,32.4
			 M36.4,30.9c-9.5,0-17.2,7.7-17.2,17.2c0,9.5,7.7,17.2,17.2,17.2c9.5,0,17.2-7.7,17.2-17.2C53.6,38.6,45.9,30.9,36.4,30.9z"/>
		<path id="XMLID_196_" class="st13" d="M36.4,33.7c3.9,0,7.5,1.5,10.2,4.2c2.7,2.7,4.2,6.4,4.2,10.2c0,3.9-1.5,7.5-4.2,10.2
			c-2.7,2.7-6.4,4.2-10.2,4.2s-7.5-1.5-10.2-4.2c-2.7-2.7-4.2-6.4-4.2-10.2c0-3.9,1.5-7.5,4.2-10.2C28.9,35.2,32.5,33.7,36.4,33.7
			 M36.4,32.3c-8.8,0-15.9,7.1-15.9,15.9c0,8.8,7.1,15.9,15.9,15.9c8.8,0,15.9-7.1,15.9-15.9C52.3,39.4,45.2,32.3,36.4,32.3z"/>
		<path id="XMLID_193_" class="st13" d="M36.4,32.9c4.1,0,7.9,1.6,10.8,4.5c2.9,2.9,4.5,6.7,4.5,10.8c0,4.1-1.6,7.9-4.5,10.8
			c-2.9,2.9-6.7,4.5-10.8,4.5c-4.1,0-7.9-1.6-10.8-4.5c-2.9-2.9-4.5-6.7-4.5-10.8c0-4.1,1.6-7.9,4.5-10.8
			C28.5,34.5,32.3,32.9,36.4,32.9 M36.4,32.3c-8.8,0-15.9,7.1-15.9,15.9c0,8.8,7.1,15.9,15.9,15.9c8.8,0,15.9-7.1,15.9-15.9
			C52.3,39.4,45.2,32.3,36.4,32.3z"/>
		<path id="XMLID_190_" class="st12" d="M86.2,32.4c4.2,0,8.2,1.6,11.2,4.6c3,3,4.6,7,4.6,11.2c0,4.2-1.6,8.2-4.6,11.2
			c-3,3-7,4.6-11.2,4.6c-4.2,0-8.2-1.6-11.2-4.6c-3-3-4.6-7-4.6-11.2C70.3,43.9,72,40,75,37C78,34,81.9,32.4,86.2,32.4 M86.2,30.9
			c-9.5,0-17.2,7.7-17.2,17.2c0,9.5,7.7,17.2,17.2,17.2c9.5,0,17.2-7.7,17.2-17.2C103.4,38.6,95.7,30.9,86.2,30.9z"/>
		<path id="XMLID_187_" class="st13" d="M86.2,33.7c3.9,0,7.5,1.5,10.2,4.2c2.7,2.7,4.2,6.4,4.2,10.2c0,3.9-1.5,7.5-4.2,10.2
			c-2.7,2.7-6.4,4.2-10.2,4.2c-3.9,0-7.5-1.5-10.2-4.2c-2.7-2.7-4.2-6.4-4.2-10.2c0-3.9,1.5-7.5,4.2-10.2
			C78.7,35.2,82.3,33.7,86.2,33.7 M86.2,32.3c-8.8,0-15.9,7.1-15.9,15.9c0,8.8,7.1,15.9,15.9,15.9c8.8,0,15.9-7.1,15.9-15.9
			C102.1,39.4,94.9,32.3,86.2,32.3z"/>
		<path id="XMLID_184_" class="st13" d="M86.2,32.9c4.1,0,7.9,1.6,10.8,4.5c2.9,2.9,4.5,6.7,4.5,10.8c0,4.1-1.6,7.9-4.5,10.8
			c-2.9,2.9-6.7,4.5-10.8,4.5c-4.1,0-7.9-1.6-10.8-4.5c-2.9-2.9-4.5-6.7-4.5-10.8c0-4.1,1.6-7.9,4.5-10.8
			C78.3,34.5,82.1,32.9,86.2,32.9 M86.2,32.3c-8.8,0-15.9,7.1-15.9,15.9c0,8.8,7.1,15.9,15.9,15.9c8.8,0,15.9-7.1,15.9-15.9
			C102.1,39.4,94.9,32.3,86.2,32.3z"/>
		<path id="XMLID_183_" class="st2" d="M68.6,48.5c-0.3,0-0.5-0.2-0.5-0.5c0-9.9,8-17.9,17.9-17.9c1.2,0,2.4,0.1,3.6,0.4
			c0.3,0.1,0.5,0.3,0.4,0.6c-0.1,0.3-0.3,0.5-0.6,0.4c-1.1-0.2-2.3-0.3-3.4-0.3c-9.3,0-16.9,7.6-16.9,16.9
			C69.1,48.3,68.9,48.5,68.6,48.5z"/>
		<path id="XMLID_182_" class="st2" d="M53.8,48.5c-0.3,0-0.5-0.2-0.5-0.5c0-9.3-7.6-16.9-16.9-16.9c-9.3,0-16.9,7.6-16.9,16.9
			c0,0.3-0.2,0.5-0.5,0.5c-0.3,0-0.5-0.2-0.5-0.5c0-9.9,8-17.9,17.9-17.9c9.9,0,17.9,8,17.9,17.9C54.3,48.3,54.1,48.5,53.8,48.5"/>
		<path id="XMLID_181_" class="st14" d="M89.9,31c0,0.2-0.2,0.3-0.3,0.3c-0.1,0-0.2,0-0.2,0l-0.2,0c-0.3-0.1-0.6-0.1-1-0.1
			c-0.6-0.1-1.3-0.1-2-0.1c-1.3,0-2.6,0.1-3.9,0.4c-2.5,0.6-4.9,1.8-7,3.4c-2,1.6-3.7,3.8-4.7,6.1c-0.5,1.2-1,2.4-1.2,3.7
			c-0.1,0.6-0.2,1.3-0.3,1.9c0,0.3,0,0.7-0.1,1l0,0.2c0,0.1,0,0.2,0,0.2c-0.1,0.2-0.2,0.3-0.4,0.3c0.2,0,0.3-0.1,0.4-0.3
			c0-0.1,0-0.2,0-0.2l0-0.2c0-0.3,0-0.7,0-1c0-0.7,0.1-1.3,0.3-1.9c0.2-1.3,0.6-2.5,1.2-3.7c1.1-2.4,2.7-4.5,4.8-6.2
			c2-1.7,4.5-2.8,7-3.4c1.3-0.3,2.6-0.4,3.9-0.4c0.7,0,1.3,0.1,2,0.1c0.3,0,0.6,0.1,1,0.2l0.2,0c0.1,0,0.2,0,0.2,0
			C89.7,31.3,89.9,31.1,89.9,31z"/>
		<polygon id="XMLID_180_" class="st12" points="50.1,26.5 48.1,19.5 47.9,18.7 47.2,19 45.9,19.4 46.2,20.6 46.9,20.5 48.7,26.9 		
			"/>
		<path id="XMLID_179_" class="st6" d="M41.8,19.3c-0.7-0.3-2.2-1-0.9-1.8c1.6-1,3.6,0.7,9,0.2c5.4-0.5,4.9,1.5,3.9,1.5
			c-0.9-0.1-6.3-0.5-8.1,0.6C44.4,20.6,43,19.9,41.8,19.3C41.8,19.3,41.8,19.3,41.8,19.3z"/>
		<path id="XMLID_176_" class="st12" d="M80,17.9c-0.3,0-0.6,0.1-0.8,0.3l-3.3,1L75.8,19l-2,0.6l1.3,4.3l2-0.6l-0.7-2.1l3.3-0.6
			c0.1,0,0.2,0,0.2,0c0.7,0,1.3-0.6,1.3-1.3S80.7,17.9,80,17.9z M80,20.3c-0.6,0-1-0.5-1-1s0.5-1,1-1c0.6,0,1,0.5,1,1
			S80.5,20.3,80,20.3z"/>
		<path id="XMLID_175_" class="st6" d="M86.4,47.2c-0.1-0.1-0.2-0.3-0.3-0.4c-0.2-0.3-0.4-0.7-0.6-1c-0.4-0.7-0.7-1.4-1-2.1
			c-0.7-1.4-1.3-2.9-1.9-4.4c-0.6-1.5-1.2-2.9-1.8-4.4c0,0,0-0.1-0.1-0.1c-0.2-0.4-0.3-0.9-0.5-1.3c-0.1-0.4-0.3-0.8-0.4-1.3
			c-0.2-0.6-0.4-1.1-0.5-1.7l-2,0.6c0.2,0.7,0.4,1.3,0.7,1.9c0.2,0.4,0.3,0.8,0.5,1.3c0.2,0.4,0.4,0.9,0.5,1.3l0,0
			c0.6,1.5,1.3,3,1.9,4.4c0.7,1.5,1.4,2.9,2.1,4.3c0.4,0.7,0.7,1.4,1.1,2.1c0.2,0.4,0.4,0.7,0.6,1.1c0.1,0.2,0.2,0.4,0.3,0.5l0,0
			c0,0,0,0,0,0.1c0,0.5,0.4,1,1,1c0.1,0,0.2,0,0.3,0l-0.6-0.6l0,0l0,0c-0.1-0.1-0.1-0.2-0.1-0.3c0-0.3,0.2-0.5,0.5-0.5
			c0.1,0,0.2,0.1,0.3,0.1l0,0l0,0l0.6,0.6c0-0.1,0-0.2,0-0.2C87.1,47.7,86.8,47.3,86.4,47.2z"/>
		<path id="XMLID_153_" class="st6" d="M77.2,31.1l2.3-0.7l-2.2-7.1L75,23.9l0.1,0.4L50.7,28l-0.4-1.5L48.6,27l0.4,1.5L36.5,47.2
			c-0.1,0-0.1,0-0.2,0c-0.5,0-1,0.4-1,1c0,0.5,0.4,1,1,1c0.1,0,0.2,0,0.2,0l-0.6-0.6l0,0c-0.1-0.1-0.2-0.2-0.2-0.4
			c0-0.3,0.2-0.5,0.5-0.5c0.1,0,0.3,0.1,0.4,0.2l0,0l0.6,0.6l17.9,4c0.3,0.6,0.9,0.9,1.5,0.9c0.9,0,1.7-0.8,1.7-1.7
			c0-0.1,0-0.3-0.1-0.4l18.5-21.1L77.2,31.1 M55.4,50.6l-18-3.2l12.1-17.3L55.4,50.6C55.4,50.6,55.4,50.6,55.4,50.6 M56.8,48.8
			l-5.6-19.1l24.4-3.6l0.3,1L56.8,48.8 M55.3,51.7c0-0.8,0.7-1.5,1.5-1.5c0.8,0,1.5,0.7,1.5,1.5c0,0.8-0.7,1.5-1.5,1.5
			C55.9,53.2,55.3,52.6,55.3,51.7"/>
		
			<rect id="XMLID_152_" x="76" y="22.4" transform="matrix(0.3013 0.9535 -0.9535 0.3013 75.6562 -56.0752)" class="st12" width="0.1" height="2.4"/>
		<rect id="XMLID_151_" x="36" y="28.9" class="st12" width="0.7" height="17.5"/>
		<path id="XMLID_150_" class="st12" d="M43.4,29.3H24.6l-1.8-0.6c-0.2-0.1-0.3-0.3-0.2-0.4c0.1-0.2,0.3-0.3,0.4-0.2l1.6,0.6H43
			l1.6-1.9c0.1-0.1,0.3-0.2,0.5,0c0.1,0.1,0.2,0.3,0,0.5L43.4,29.3z"/>
		<path id="XMLID_149_" class="st12" d="M34.8,45.1c-0.1,0-0.1,0-0.2-0.1c-0.1-0.1-0.2-0.3-0.1-0.5l1.1-1.3L27.1,30h-1.8
			c-0.2,0-0.3-0.1-0.3-0.3c0-0.2,0.1-0.3,0.3-0.3h2.2l9,13.9L35.1,45C35,45.1,34.9,45.1,34.8,45.1z"/>
		<rect id="XMLID_148_" x="36.2" y="45.4" class="st12" width="0.5" height="2.7"/>
		<polygon id="XMLID_147_" class="st12" points="48.4,30.5 47.3,28.9 43.4,28.9 43.4,28.5 47.5,28.5 48.7,30.3 		"/>
		<circle id="XMLID_146_" class="st12" cx="48.5" cy="30.4" r="0.4"/>
		<path id="XMLID_145_" class="st2" d="M48.6,27.2c-0.1-0.1-0.1-0.2-0.1-0.3c0,0,0-0.1,0-0.1c0-0.1-0.1-0.1,0.1-0.2l1.5-0.4
			c0.2,0,0.2,0,0.2,0.1c0,0,0,0.1,0.1,0.1c0,0.1,0.1,0.2,0,0.3L48.6,27.2z"/>
		<path id="XMLID_144_" class="st2" d="M81.6,25.6l2.2-1.4c1.7-1.1,1.8-2,1.4-3c-0.2-0.6-0.7-1-1.2-1.2l-3.5,0.1
			c-0.1,0-0.1,0.1-0.2,0.1c-0.1,0-0.2,0.1-0.4,0.1c-0.4,0-0.8-0.2-0.9-0.6c-0.1-0.2-0.1-0.5,0-0.8c0.1-0.2,0.3-0.4,0.6-0.5
			c0.1,0,0.2-0.1,0.4-0.1c0.1,0,0.3,0,0.4,0.1l4-0.1l0.1,0c1.1,0.4,2,1.2,2.4,2.3c0.8,2,0.1,3.6-2.1,5.1l0,0l-2.2,1.4L81.6,25.6z"/>
		<path id="XMLID_141_" class="st15" d="M79.9,18.3c0.1,0,0.3,0,0.4,0.1l0,0l0,0l3.9-0.1l0.1,0c1.1,0.4,2,1.2,2.4,2.3
			c0.8,2,0.1,3.6-2.1,5.1l0,0l-2.2,1.4l-0.9-1.5l2.2-1.3c1.7-1.1,1.8-2,1.4-3c-0.2-0.6-0.7-1-1.2-1.2l0,0l0,0l-3.5,0.1l0,0l0,0
			c-0.1,0-0.1,0.1-0.2,0.1c-0.1,0-0.2,0.1-0.4,0.1c-0.4,0-0.8-0.2-0.9-0.6c-0.1-0.2-0.1-0.5,0-0.8c0.1-0.2,0.3-0.4,0.5-0.5
			C79.7,18.3,79.8,18.3,79.9,18.3 M79.9,18.2c-0.1,0-0.3,0-0.4,0.1c-0.5,0.2-0.8,0.8-0.6,1.3c0.2,0.4,0.5,0.6,1,0.6
			c0.1,0,0.3,0,0.4-0.1c0.1,0,0.1-0.1,0.2-0.1l3.5-0.1c0.6,0.2,1,0.7,1.2,1.2c0.4,1,0.3,1.8-1.4,3l-2.2,1.4l0.9,1.5l2.2-1.4l0,0
			c2.2-1.5,2.9-3.1,2.1-5.1c-0.4-1.1-1.3-1.9-2.4-2.3l-0.1,0l-3.9,0.1C80.2,18.3,80.1,18.2,79.9,18.2z"/>
		<path id="XMLID_139_" class="st15" d="M84.6,23.6c0.1,0.1,0.3,0.1,0.4,0.2c0.1,0.1,0.3,0.2,0.4,0.3c0.1,0.1,0.2,0.2,0.3,0.4
			c0.1,0.1,0.1,0.3,0.1,0.5c0-0.2-0.1-0.3-0.2-0.4c-0.1-0.1-0.2-0.2-0.3-0.3C85.1,24,84.9,23.8,84.6,23.6z"/>
		<path id="XMLID_138_" class="st15" d="M84.2,24c0.1,0.1,0.3,0.2,0.4,0.2c0.1,0.1,0.2,0.2,0.3,0.3c0.1,0.1,0.2,0.3,0.3,0.4
			c0.1,0.1,0.1,0.3,0,0.5c0-0.2-0.1-0.3-0.1-0.4c-0.1-0.1-0.2-0.2-0.3-0.4C84.6,24.4,84.4,24.2,84.2,24z"/>
		<path id="XMLID_137_" class="st15" d="M83.9,24.2c0.1,0.1,0.3,0.2,0.4,0.3c0.1,0.1,0.2,0.2,0.3,0.4c0.1,0.1,0.2,0.3,0.2,0.4
			c0,0.2,0.1,0.3,0,0.5c0-0.2,0-0.3-0.1-0.4c-0.1-0.1-0.1-0.3-0.2-0.4C84.2,24.7,84.1,24.5,83.9,24.2z"/>
		<path id="XMLID_136_" class="st15" d="M83.5,24.5c0.1,0.1,0.3,0.2,0.4,0.3c0.1,0.1,0.2,0.3,0.3,0.4c0.1,0.1,0.1,0.3,0.1,0.5
			c0,0.2,0,0.3-0.1,0.5c0-0.2,0-0.3,0-0.5c0-0.1-0.1-0.3-0.2-0.4C83.8,25,83.7,24.7,83.5,24.5z"/>
		<path id="XMLID_135_" class="st15" d="M83.2,24.7c0.1,0.1,0.2,0.3,0.3,0.4c0.1,0.1,0.1,0.3,0.2,0.4c0,0.2,0.1,0.3,0.1,0.5
			c0,0.2,0,0.3-0.1,0.5c0-0.2,0-0.3-0.1-0.5c0-0.1-0.1-0.3-0.1-0.4C83.4,25.3,83.3,25,83.2,24.7z"/>
		<path id="XMLID_134_" class="st15" d="M82.7,24.9c0.1,0.1,0.2,0.3,0.2,0.4c0.1,0.1,0.1,0.3,0.2,0.5c0,0.2,0.1,0.3,0.1,0.5
			c0,0.2,0,0.3-0.1,0.5c0-0.2,0-0.3,0-0.5c0-0.2-0.1-0.3-0.1-0.5C82.9,25.5,82.8,25.2,82.7,24.9z"/>
		<path id="XMLID_133_" class="st15" d="M82.3,25.2c0.1,0.1,0.2,0.3,0.3,0.4c0.1,0.1,0.1,0.3,0.2,0.5c0,0.2,0.1,0.3,0.1,0.5
			c0,0.2,0,0.3-0.1,0.5c0-0.2,0-0.3-0.1-0.5c0-0.2-0.1-0.3-0.1-0.5C82.5,25.8,82.4,25.5,82.3,25.2z"/>
		<path id="XMLID_132_" class="st15" d="M82,25.4c0.1,0.1,0.2,0.2,0.2,0.3c0.1,0.1,0.1,0.2,0.1,0.3c0,0.1,0.1,0.2,0.1,0.4
			c0,0.1,0,0.3-0.1,0.4c0-0.1,0-0.2,0-0.3c0-0.1-0.1-0.2-0.1-0.3C82.1,25.8,82,25.6,82,25.4z"/>
		<polygon id="XMLID_131_" class="st11" points="85.8,48.9 85.4,48.2 85.8,47.5 86.5,47.5 86.9,48.2 86.5,48.9 		"/>
		<circle id="XMLID_130_" class="st16" cx="86.2" cy="48.2" r="0.5"/>
		<path id="XMLID_127_" class="st16" d="M86.5,47.5h-0.8l-0.4,0.7l0.4,0.7h0.8l0.4-0.7L86.5,47.5z M86.5,48.9h-0.7l-0.4-0.7l0.4-0.7
			h0.7l0.4,0.7L86.5,48.9z"/>
		<path id="XMLID_124_" class="st17" d="M86.5,47.5h-0.7l-0.4,0.7l0.4,0.7h0.7l0.4-0.7L86.5,47.5z M86.2,48.6
			c-0.3,0-0.5-0.2-0.5-0.5c0-0.3,0.2-0.5,0.5-0.5c0.3,0,0.5,0.2,0.5,0.5C86.6,48.4,86.4,48.6,86.2,48.6z"/>
		<circle id="XMLID_123_" class="st11" cx="86.2" cy="48.2" r="0.5"/>
		<path id="XMLID_122_" class="st7" d="M86.2,47.8c0.2,0,0.4,0.2,0.5,0.4c0,0,0,0,0-0.1c0-0.3-0.2-0.5-0.5-0.5
			c-0.3,0-0.5,0.2-0.5,0.5c0,0,0,0,0,0.1C85.7,48,85.9,47.8,86.2,47.8z"/>
		<path id="XMLID_121_" class="st9" d="M86.2,48.5c-0.2,0-0.4-0.2-0.5-0.4c0,0,0,0,0,0.1c0,0.3,0.2,0.5,0.5,0.5
			c0.3,0,0.5-0.2,0.5-0.5c0,0,0,0,0-0.1C86.6,48.3,86.4,48.5,86.2,48.5z"/>
		<polygon id="XMLID_120_" class="st11" points="36,48.9 35.6,48.2 36,47.5 36.8,47.5 37.2,48.2 36.8,48.9 		"/>
		<circle id="XMLID_119_" class="st16" cx="36.4" cy="48.2" r="0.5"/>
		<path id="XMLID_116_" class="st16" d="M36.8,47.5H36l-0.4,0.7l0.4,0.7h0.8l0.4-0.7L36.8,47.5z M36.8,48.9H36l-0.4-0.7l0.4-0.7h0.7
			l0.4,0.7L36.8,48.9z"/>
		<path id="XMLID_113_" class="st17" d="M36.8,47.5H36l-0.4,0.7l0.4,0.7h0.7l0.4-0.7L36.8,47.5z M36.4,48.6c-0.3,0-0.5-0.2-0.5-0.5
			c0-0.3,0.2-0.5,0.5-0.5c0.3,0,0.5,0.2,0.5,0.5C36.9,48.4,36.6,48.6,36.4,48.6z"/>
		<circle id="XMLID_112_" class="st11" cx="36.4" cy="48.2" r="0.5"/>
		<path id="XMLID_111_" class="st7" d="M36.4,47.8c0.2,0,0.4,0.2,0.5,0.4c0,0,0,0,0-0.1c0-0.3-0.2-0.5-0.5-0.5
			c-0.3,0-0.5,0.2-0.5,0.5c0,0,0,0,0,0.1C35.9,48,36.1,47.8,36.4,47.8z"/>
		<path id="XMLID_110_" class="st9" d="M36.4,48.5c-0.2,0-0.4-0.2-0.5-0.4c0,0,0,0,0,0.1c0,0.3,0.2,0.5,0.5,0.5
			c0.3,0,0.5-0.2,0.5-0.5c0,0,0,0,0-0.1C36.8,48.3,36.6,48.5,36.4,48.5z"/>
	</g>
	<g id="XMLID_3_">
		<g id="XMLID_106_">
			
				<rect id="XMLID_108_" x="55.4" y="52.4" transform="matrix(0.9837 0.18 -0.18 0.9837 11.0389 -9.1455)" class="st18" width="0.9" height="7.7"/>
			<path id="XMLID_107_" class="st19" d="M53.2,60.2C53.2,60.2,53.2,60.2,53.2,60.2l2.8,0.1c0,0,0.1,0,0.1-0.1v-0.5
				c0,0,0-0.1-0.1-0.1h-2.8c0,0-0.1,0-0.1,0.1V60.2z"/>
		</g>
		
			<rect id="XMLID_105_" x="36.1" y="46.7" transform="matrix(-0.9999 1.325704e-002 -1.325704e-002 -0.9999 93.1326 93.0348)" class="st20" width="20.3" height="0.3"/>
		
			<rect id="XMLID_104_" x="35.5" y="53.5" transform="matrix(0.9468 0.3217 -0.3217 0.9468 19.6971 -11.8337)" class="st20" width="20.4" height="0.3"/>
		<g id="XMLID_13_">
			<path id="XMLID_17_" class="st21" d="M56.6,46.5c-3,0-5.4,2.4-5.4,5.4c0,3,2.4,5.4,5.4,5.4c3,0,5.4-2.4,5.4-5.4
				C62,48.9,59.6,46.5,56.6,46.5z M57.1,47.3c0,0,0-0.1,0.1-0.1c0,0,0.1,0,0.1,0c0.8,0.1,1.5,0.4,2.1,0.9c0.6,0.4,1.1,1,1.5,1.7
				c0,0,0,0.1,0,0.1c0,0,0,0.1-0.1,0.1L57,51.7c-0.1,0-0.1,0-0.2,0c0,0-0.1-0.1-0.1-0.1L57.1,47.3z M52.3,49.7
				c0.4-0.7,0.9-1.3,1.5-1.7c0.6-0.4,1.3-0.7,2.1-0.9c0,0,0.1,0,0.1,0c0,0,0.1,0.1,0.1,0.1l0.4,4.3c0,0.1,0,0.1-0.1,0.1
				c0,0-0.1,0-0.2,0l-3.9-1.8c0,0-0.1-0.1-0.1-0.1C52.3,49.8,52.3,49.7,52.3,49.7z M53.1,55.1c0,0-0.1,0-0.1-0.1
				c-0.5-0.6-0.8-1.3-1-2c-0.2-0.8-0.2-1.5,0-2.3c0,0,0-0.1,0.1-0.1c0,0,0.1,0,0.1,0l4.1,1.2c0.1,0,0.1,0.1,0.1,0.1
				c0,0.1,0,0.1,0,0.2l-3.1,3C53.2,55.1,53.2,55.1,53.1,55.1z M58.9,56.1C58.9,56.1,58.9,56.1,58.9,56.1c-0.8,0.4-1.5,0.6-2.3,0.6
				c-0.8,0-1.5-0.2-2.2-0.5c0,0-0.1-0.1-0.1-0.1c0,0,0-0.1,0-0.1l2.1-3.7c0,0,0.1-0.1,0.1-0.1c0.1,0,0.1,0,0.1,0.1l2.1,3.7
				C58.9,56,58.9,56,58.9,56.1z M60.3,55.1c0,0-0.1,0.1-0.1,0.1c0,0-0.1,0-0.1,0l-3.1-3c0,0-0.1-0.1,0-0.2c0-0.1,0.1-0.1,0.1-0.1
				l4.1-1.2c0,0,0.1,0,0.1,0c0,0,0.1,0.1,0.1,0.1c0.2,0.8,0.2,1.5,0,2.3C61.1,53.8,60.8,54.5,60.3,55.1z"/>
			<path id="XMLID_14_" class="st22" d="M56.6,46.5c-3,0-5.4,2.4-5.4,5.4c0,3,2.4,5.4,5.4,5.4c3,0,5.4-2.4,5.4-5.4
				C62,48.9,59.6,46.5,56.6,46.5z M56.6,57c-2.8,0-5.1-2.3-5.1-5.1c0-2.8,2.3-5.1,5.1-5.1c2.8,0,5.1,2.3,5.1,5.1
				C61.7,54.7,59.4,57,56.6,57z"/>
		</g>
		<g id="XMLID_10_">
			<circle id="XMLID_12_" class="st23" cx="36.1" cy="48.7" r="1.9"/>
			<circle id="XMLID_11_" class="st24" cx="36.1" cy="48.7" r="1.4"/>
		</g>
		<g id="XMLID_7_">
			
				<rect id="XMLID_9_" x="57" y="44" transform="matrix(-0.9837 -0.1797 0.1797 -0.9837 105.3061 105.3578)" class="st18" width="0.9" height="7.7"/>
			<path id="XMLID_8_" class="st19" d="M57.2,44.1C57.2,44.2,57.2,44.2,57.2,44.1l2.8,0.1c0,0,0.1,0,0.1-0.1v-0.5c0,0,0-0.1-0.1-0.1
				h-2.8c0,0-0.1,0-0.1,0.1V44.1z"/>
		</g>
		<g id="XMLID_4_">
			<circle id="XMLID_6_" class="st19" cx="56.6" cy="51.9" r="1"/>
			<circle id="XMLID_5_" class="st25" cx="56.6" cy="51.9" r="0.7"/>
		</g>
	</g>
</g>
<rect id="XMLID_609_" x="100.6" y="13.1" class="st26" width="89.9" height="15.7"/>
<text id="XMLID_610_" transform="matrix(1 0 0 1 100.6265 21.9685)" class="st27 st28 st29">Find your Path</text>
</svg>
